<svg width="513" height="513" viewBox="0 0 513 513" fill="none" xmlns="http://www.w3.org/2000/svg">
<path d="M437.69 75.8916C389.338 27.5386 325.051 0.910645 256.671 0.910645C188.291 0.910645 124.004 27.5386 75.6519 75.8916C27.2989 124.244 0.670898 188.531 0.670898 256.911C0.670898 325.291 27.2989 389.578 75.6519 437.93C124.004 486.283 188.291 512.911 256.671 512.911C325.051 512.911 389.338 486.283 437.69 437.93C486.043 389.578 512.671 325.291 512.671 256.911C512.671 188.531 486.043 124.244 437.69 75.8916ZM256.671 492.911C126.54 492.911 20.6709 387.042 20.6709 256.911C20.6709 126.78 126.54 20.9106 256.671 20.9106C386.802 20.9106 492.671 126.78 492.671 256.911C492.671 387.042 386.802 492.911 256.671 492.911Z" fill="url(#paint0_linear)" fill-opacity="0.6"/>
<path d="M464.341 254.961C463.506 250.846 460.122 247.626 455.961 247.021C451.789 246.414 447.563 248.594 445.645 252.346C443.745 256.062 444.374 260.694 447.234 263.747C450.05 266.753 454.561 267.716 458.36 266.141C462.701 264.343 465.278 259.579 464.341 254.961Z" fill="url(#paint1_linear)" fill-opacity="0.6"/>
<path d="M451.585 292.513C446.205 291.249 440.825 294.581 439.56 299.957C419.497 385.224 344.29 444.775 256.671 444.775C153.083 444.775 68.8069 360.5 68.8069 256.911C68.8069 153.322 153.083 69.0466 256.671 69.0466C344.367 69.0466 419.589 128.663 439.597 214.022C440.858 219.399 446.239 222.734 451.615 221.476C456.992 220.215 460.329 214.835 459.069 209.458C448.555 164.599 422.843 123.886 386.671 94.8196C349.938 65.3026 303.77 49.0476 256.671 49.0476C142.054 49.0466 48.8069 142.294 48.8069 256.911C48.8069 371.528 142.054 464.775 256.671 464.775C303.738 464.775 349.882 448.539 386.604 419.056C422.762 390.026 448.483 349.356 459.029 304.538C460.294 299.162 456.961 293.778 451.585 292.513Z" fill="url(#paint2_linear)" fill-opacity="0.6"/>
<path d="M185.289 374.677C202.26 374.677 216.067 360.87 216.067 343.899V172.421C216.067 155.45 202.26 141.643 185.289 141.643H148.637C131.666 141.643 117.859 155.45 117.859 172.421C117.859 189.392 131.666 203.199 148.637 203.199H154.511V343.899C154.51 360.87 168.317 374.677 185.289 374.677ZM148.637 183.199C142.694 183.199 137.859 178.364 137.859 172.421C137.859 166.478 142.694 161.643 148.637 161.643H185.289C191.232 161.643 196.067 166.478 196.067 172.421V343.899C196.067 349.842 191.232 354.677 185.289 354.677C179.346 354.677 174.511 349.842 174.511 343.899V193.199C174.511 187.676 170.034 183.199 164.511 183.199H148.637Z" fill="url(#paint3_linear)" fill-opacity="0.6"/>
<path d="M315.118 372.181C359.432 372.181 395.484 336.129 395.484 291.815C395.484 271.6 387.831 252.207 374.244 237.434C379.37 227.819 382.048 217.126 382.048 206.076C382.048 169.17 352.023 139.145 315.118 139.145C278.213 139.145 248.188 169.17 248.188 206.076C248.188 217.126 250.866 227.819 255.992 237.434C242.406 252.206 234.752 271.599 234.752 291.815C234.752 336.128 270.804 372.181 315.118 372.181ZM275.293 246.492C279.138 243.108 279.805 237.366 276.838 233.191C271.179 225.23 268.188 215.854 268.188 206.076C268.188 180.198 289.241 159.145 315.118 159.145C340.995 159.145 362.048 180.198 362.048 206.076C362.048 215.854 359.057 225.23 353.398 233.191C350.43 237.366 351.097 243.108 354.942 246.492C367.996 257.978 375.483 274.498 375.483 291.815C375.483 325.101 348.403 352.181 315.117 352.181C281.831 352.181 254.751 325.101 254.751 291.815C254.752 274.497 262.239 257.978 275.293 246.492Z" fill="url(#paint4_linear)" fill-opacity="0.6"/>
<path d="M315.118 231.449C329.109 231.449 340.492 220.067 340.492 206.076C340.492 192.085 329.11 180.702 315.118 180.702C301.127 180.702 289.744 192.085 289.744 206.076C289.744 220.067 301.127 231.449 315.118 231.449ZM315.118 200.702C318.081 200.702 320.492 203.113 320.492 206.076C320.492 209.039 318.081 211.449 315.118 211.449C312.155 211.449 309.744 209.038 309.744 206.076C309.744 203.112 312.155 200.702 315.118 200.702Z" fill="url(#paint5_linear)" fill-opacity="0.6"/>
<path d="M315.118 330.624C336.517 330.624 353.927 313.214 353.927 291.814C353.927 270.415 336.517 253.005 315.118 253.005C293.719 253.005 276.308 270.415 276.308 291.814C276.308 313.214 293.718 330.624 315.118 330.624ZM315.118 273.005C325.49 273.005 333.927 281.443 333.927 291.814C333.927 302.185 325.489 310.624 315.118 310.624C304.746 310.624 296.308 302.186 296.308 291.814C296.308 281.442 304.746 273.005 315.118 273.005Z" fill="url(#paint6_linear)" fill-opacity="0.6"/>
<defs>
<linearGradient id="paint0_linear" x1="419.855" y1="43.3246" x2="263.492" y2="529.41" gradientUnits="userSpaceOnUse">
<stop stop-color="#FF8E44"/>
<stop offset="0.538879" stop-color="#F91362"/>
<stop offset="1" stop-color="#003DBA"/>
</linearGradient>
<linearGradient id="paint1_linear" x1="419.855" y1="43.3246" x2="263.492" y2="529.41" gradientUnits="userSpaceOnUse">
<stop stop-color="#FF8E44"/>
<stop offset="0.538879" stop-color="#F91362"/>
<stop offset="1" stop-color="#003DBA"/>
</linearGradient>
<linearGradient id="paint2_linear" x1="419.855" y1="43.3246" x2="263.492" y2="529.41" gradientUnits="userSpaceOnUse">
<stop stop-color="#FF8E44"/>
<stop offset="0.538879" stop-color="#F91362"/>
<stop offset="1" stop-color="#003DBA"/>
</linearGradient>
<linearGradient id="paint3_linear" x1="419.855" y1="43.3246" x2="263.492" y2="529.41" gradientUnits="userSpaceOnUse">
<stop stop-color="#FF8E44"/>
<stop offset="0.538879" stop-color="#F91362"/>
<stop offset="1" stop-color="#003DBA"/>
</linearGradient>
<linearGradient id="paint4_linear" x1="419.855" y1="43.3246" x2="263.492" y2="529.41" gradientUnits="userSpaceOnUse">
<stop stop-color="#FF8E44"/>
<stop offset="0.538879" stop-color="#F91362"/>
<stop offset="1" stop-color="#003DBA"/>
</linearGradient>
<linearGradient id="paint5_linear" x1="419.855" y1="43.3246" x2="263.492" y2="529.41" gradientUnits="userSpaceOnUse">
<stop stop-color="#FF8E44"/>
<stop offset="0.538879" stop-color="#F91362"/>
<stop offset="1" stop-color="#003DBA"/>
</linearGradient>
<linearGradient id="paint6_linear" x1="419.855" y1="43.3246" x2="263.492" y2="529.41" gradientUnits="userSpaceOnUse">
<stop stop-color="#FF8E44"/>
<stop offset="0.538879" stop-color="#F91362"/>
<stop offset="1" stop-color="#003DBA"/>
</linearGradient>
</defs>
</svg>
