<svg width="297" height="513" viewBox="0 0 297 513" fill="none" xmlns="http://www.w3.org/2000/svg">
<path d="M278.06 224.341C277.712 223.001 277.074 221.716 276.225 220.624C270.829 209.893 264.103 198.364 255.755 185.916C251.937 180.22 248.549 174.14 245.686 167.842C240.264 155.912 221.641 164.326 227.072 176.274C230.396 183.585 234.332 190.648 238.769 197.266C244.614 205.983 249.591 214.137 253.826 221.808C185.155 249.458 100.466 261.56 31.1806 228.591C50.2989 185.884 68.9288 125.577 59.2393 65.6933C52.8682 26.3202 37.1654 5.67091 36.5001 4.81142C28.4826 -5.55052 12.2554 6.85948 20.2944 17.246C20.4303 17.4248 33.9563 35.6019 39.2901 70.3975C48.2703 128.971 27.5781 188.813 8.62225 228.724C7.00648 232.021 -4.3192 257.767 3.25578 317.36C8.92067 361.924 22.7972 405.277 44.5012 446.216C65.8301 486.449 68.6007 499.685 68.801 503.509C69.4899 516.596 89.9112 515.727 89.2132 502.439C88.9894 498.183 88.3087 485.227 62.5669 436.671C42.0198 397.914 28.8873 356.908 23.5331 314.793C20.1891 288.488 20.8493 268.574 22.693 255.239C77.8998 293.491 115.39 336.097 125.13 347.688C122.433 416.04 117.894 490.621 114.811 499.496C110.334 511.814 129.554 518.763 134.025 506.455C139.556 491.234 144.328 379.464 145.552 348.546C156.466 335.732 210.432 273.978 263.526 241.391C280.84 281.225 276.241 306.692 271.752 331.519C263.13 379.201 243.252 424.819 225.971 469.894C218.715 488.819 215.473 497.319 214.672 500.459C211.449 513.105 231.118 518.165 234.478 505.499C235.092 503.182 239.933 490.556 245.059 477.188C262.808 430.898 283.005 384.111 291.866 335.143C296.782 307.95 302.676 275.355 278.06 224.341ZM135.735 328.634C123.971 315.166 99.6671 289.152 65.5123 261.731C111.643 272.416 160.173 269.832 205.959 258.697C174.801 285.292 148.404 314.155 135.735 328.634Z" fill="url(#paint0_linear)" fill-opacity="0.6"/>
<path d="M222.393 101.932C227.892 102.263 232.864 97.8267 233.179 92.3284C235.611 49.8127 250.575 15.5178 250.726 15.1754C256.032 3.20077 237.361 -5.07428 232.036 6.91467C231.36 8.43948 215.426 44.7865 212.772 91.1644C212.45 96.7894 216.757 101.611 222.393 101.932Z" fill="url(#paint1_linear)" fill-opacity="0.6"/>
<path d="M129.951 191.179C135.595 191.179 140.171 186.611 140.171 180.977V159.522C140.171 146.452 119.731 146.426 119.731 159.522V180.977C119.731 186.611 124.306 191.179 129.951 191.179Z" fill="url(#paint2_linear)" fill-opacity="0.6"/>
<path d="M234.092 126.956C231.713 123.321 227.036 121.639 222.87 122.798C218.584 123.991 215.49 127.919 215.386 132.369C215.173 141.451 226.659 146.29 232.979 139.671C236.246 136.25 236.723 130.897 234.092 126.956Z" fill="url(#paint3_linear)" fill-opacity="0.6"/>
<defs>
<linearGradient id="paint0_linear" x1="242.665" y1="43.3238" x2="14.5949" y2="452.626" gradientUnits="userSpaceOnUse">
<stop stop-color="#FF8E44"/>
<stop offset="0.538879" stop-color="#F91362"/>
<stop offset="1" stop-color="#003DBA"/>
</linearGradient>
<linearGradient id="paint1_linear" x1="242.665" y1="43.3238" x2="14.5949" y2="452.626" gradientUnits="userSpaceOnUse">
<stop stop-color="#FF8E44"/>
<stop offset="0.538879" stop-color="#F91362"/>
<stop offset="1" stop-color="#003DBA"/>
</linearGradient>
<linearGradient id="paint2_linear" x1="242.665" y1="43.3238" x2="14.5949" y2="452.626" gradientUnits="userSpaceOnUse">
<stop stop-color="#FF8E44"/>
<stop offset="0.538879" stop-color="#F91362"/>
<stop offset="1" stop-color="#003DBA"/>
</linearGradient>
<linearGradient id="paint3_linear" x1="242.665" y1="43.3238" x2="14.5949" y2="452.626" gradientUnits="userSpaceOnUse">
<stop stop-color="#FF8E44"/>
<stop offset="0.538879" stop-color="#F91362"/>
<stop offset="1" stop-color="#003DBA"/>
</linearGradient>
</defs>
</svg>
