<svg width="702" height="491" viewBox="0 0 702 491" fill="none" xmlns="http://www.w3.org/2000/svg">
<g clip-path="url(#clip0)">
<path d="M591.839 230.908C591.839 230.908 603.779 215.908 624.419 212.138C645.059 208.368 704.569 209.138 704.569 209.138L707.199 223.998L591.839 230.908Z" fill="#8860FB"/>
<path opacity="0.27" d="M753.389 402.078C752.915 407.286 752.063 412.453 750.839 417.538C750.862 417.599 750.862 417.667 750.839 417.728H10.159L10.019 417.538C6.47734 412.613 3.28295 407.447 0.458984 402.078H753.389Z" fill="#8860FB"/>
<path d="M575.189 335.658H551.289C544.297 335.658 538.629 341.326 538.629 348.318V394.188C538.629 401.18 544.297 406.848 551.289 406.848H575.189C582.181 406.848 587.849 401.18 587.849 394.188V348.318C587.849 341.326 582.181 335.658 575.189 335.658Z" fill="#3F3D56"/>
<path opacity="0.27" d="M750.559 417.728C738.639 466.598 691.719 493.068 602.149 490.618C450.149 486.448 252.289 440.858 135.669 463.618C76.149 475.288 33.979 451.508 9.73901 417.728H750.559Z" fill="#8860FB"/>
<path d="M116.289 417.728L38.579 436.688L92.639 436.128L167.059 417.848L116.289 417.728Z" fill="white"/>
<path d="M237.549 417.728L159.839 436.688L213.899 436.128L288.319 417.848L237.549 417.728Z" fill="white"/>
<path d="M358.809 417.728L281.099 436.688L335.159 436.128L409.579 417.848L358.809 417.728Z" fill="white"/>
<path d="M480.069 417.728L402.359 436.688L456.409 436.128L530.829 417.848L480.069 417.728Z" fill="white"/>
<path d="M601.329 417.728L523.609 436.688L577.669 436.128L652.089 417.848L601.329 417.728Z" fill="white"/>
<path d="M722.579 417.728L644.869 436.688L698.929 436.128L748.99 423.831L773.349 417.848L750.684 417.794L722.579 417.728Z" fill="white"/>
<path opacity="0.05" d="M597.709 417.728C578.939 424.388 559.579 429.578 540.309 434.728C519.029 440.428 497.539 446.148 475.519 447.028C462.235 447.55 448.941 446.296 435.989 443.298C431.739 442.298 427.469 441.148 423.109 441.178C415.269 441.258 408.109 445.178 400.779 448.078C380.779 455.928 358.699 455.798 337.229 455.568L245.559 454.568C229.109 454.388 210.899 453.568 199.109 442.048C197.489 440.478 195.929 438.468 196.109 436.198C196.419 432.148 201.539 430.688 205.579 430.258C229.099 427.748 252.709 425.678 276.159 422.578C285.459 421.348 294.649 419.578 303.809 417.728H597.709Z" fill="#000405"/>
<path d="M408.359 231.608L381.529 329.268L325.699 406.838L308.199 394.988L346.999 318.938L340.489 242.218L395.499 218.628L408.359 231.608Z" fill="#25233A"/>
<path d="M454.689 397.388L435.109 409.248C435.109 409.248 415.109 341.158 401.189 320.678C368.839 273.078 342.409 241.458 342.409 241.458L388.839 218.918L389.419 218.628L398.609 239.458L435.609 303.628L440.289 324.238L454.689 397.388Z" fill="#3F3D56"/>
<path d="M297.409 322.788L292.539 363.818L372.439 373.378L389.179 371.328L382.059 297.468L377.899 292.758L297.409 322.788Z" fill="#3F3D56"/>
<path d="M373.209 371.758L377.789 307.518L381.769 299.558L386.899 369.618L373.209 371.758Z" fill="url(#paint0_linear)"/>
<path d="M325.759 271.548C325.759 271.548 318.979 275.548 318.639 286.948H323.759C323.759 286.948 324.099 278.578 328.029 277.728L325.759 271.548Z" fill="#3F3D56"/>
<path d="M412.839 53.888L420.239 62.458L411.319 70.718L404.839 64.648L400.229 63.568C398.74 63.2225 397.387 62.4402 396.345 61.3214C395.303 60.2026 394.618 58.7982 394.379 57.288C394.259 56.558 394.109 55.838 393.919 55.128C392.919 51.338 396.919 28.818 399.419 29.598C405.139 31.428 407.069 44.748 408.779 45.768C410.489 46.788 412.839 53.888 412.839 53.888Z" fill="url(#paint1_linear)"/>
<path d="M406.839 56.768C405.189 57.768 399.659 60.518 399.659 60.518C398.732 60.7777 397.744 60.6997 396.869 60.298C396.555 60.1008 396.303 59.8204 396.139 59.488C395.899 59.008 393.739 52.488 393.739 52.488L390.969 44.938L385.489 29.938L394.979 25.938C395.372 25.7738 395.793 25.6885 396.218 25.687C396.644 25.6856 397.066 25.768 397.46 25.9296C397.853 26.0912 398.211 26.3288 398.513 26.6288C398.815 26.9288 399.055 27.2853 399.219 27.678L399.279 27.828L408.209 53.008C408.394 53.6996 408.362 54.4313 408.116 55.1039C407.871 55.7765 407.425 56.3574 406.839 56.768Z" fill="#8860FB"/>
<path d="M405.659 55.758C404.549 56.278 396.919 60.298 396.919 60.298C396.605 60.1008 396.353 59.8204 396.189 59.488C395.949 59.008 393.789 52.488 393.789 52.488L391.019 44.938L388.669 34.838L396.839 26.458L406.519 53.848C406.566 54.2148 406.511 54.5874 406.359 54.9246C406.207 55.2618 405.965 55.5503 405.659 55.758Z" fill="url(#paint2_linear)"/>
<path d="M409.499 241.688L396.179 218.628L380.839 245.268C380.839 245.268 355.309 245.028 339.759 241.898L337.759 241.468C331.759 240.068 327.669 238.158 328.099 235.538C328.499 233.138 330.099 225.838 331.229 216.078C332.548 205.524 332.81 194.864 332.009 184.258C331.289 175.868 327.599 167.358 324.819 159.648C323.385 156.041 322.349 152.289 321.729 148.458C320.669 139.878 319.659 133.288 318.829 130.458C317.629 126.328 317.289 120.458 317.459 114.348C317.769 102.238 320.039 89.118 321.399 86.348C322.759 83.578 334.879 78.058 342.309 74.928C345.639 73.498 348.009 72.568 348.009 72.568H377.729L403.349 86.918C403.349 86.918 408.349 118.178 409.049 124.678C409.709 131.018 401.489 157.848 400.789 164.978C399.069 182.758 409.499 241.688 409.499 241.688Z" fill="#8860FB"/>
<path d="M358.279 174.898L342.409 241.458H337.689C331.689 240.058 327.599 238.148 328.029 235.528C328.799 230.918 334.029 207.788 331.949 184.248C330.839 171.478 322.949 158.578 321.699 148.468L340.839 127.078L358.279 174.898Z" fill="url(#paint3_linear)"/>
<path d="M348.009 72.588L383.709 130.658C383.709 130.658 382.169 87.658 379.949 80.108C377.729 72.558 348.009 72.588 348.009 72.588Z" fill="white"/>
<path d="M355.839 52.4579C355.839 52.4579 351.159 71.3179 347.979 72.6079C351.747 77.9061 357.44 81.5174 363.839 82.6679C367.479 83.3679 382.169 84.6679 379.949 80.1079C378.697 77.7818 377.941 75.2212 377.729 72.5879V65.0779C377.729 65.0779 389.729 68.8279 390.889 63.5379C392.049 58.2479 398.059 48.9579 396.889 26.4179C395.719 3.87794 361.139 9.78795 356.349 13.4179C351.559 17.0479 348.069 38.8279 355.839 52.4579Z" fill="url(#paint4_linear)"/>
<path d="M367.409 0.617972C370.181 0.104876 373.003 -0.0897185 375.819 0.0379742C380.273 0.0167626 384.69 0.837849 388.839 2.45797C392.929 4.22797 396.579 7.39797 398.099 11.598C398.779 13.7603 399.169 16.0031 399.259 18.268C399.411 19.2669 399.367 20.2859 399.129 21.268C399.001 21.7537 398.737 22.1931 398.369 22.5348C398.001 22.8765 397.543 23.1065 397.049 23.198C395.489 23.358 394.049 21.638 392.579 22.108C391.629 22.398 391.149 23.438 390.359 24.038C388.709 25.288 386.359 24.308 384.539 23.368C382.719 22.428 380.219 21.628 378.839 23.128C377.699 24.298 377.629 26.598 376.039 26.968C375.636 27.0096 375.228 26.9723 374.839 26.858C371.899 26.288 368.449 25.678 366.269 27.718C365.16 28.9712 364.422 30.5087 364.139 32.158C363.646 33.9846 363.159 35.808 362.679 37.628L359.779 34.558C359.542 34.2692 359.24 34.0397 358.899 33.888C358.511 33.8298 358.115 33.887 357.759 34.0523C357.404 34.2177 357.104 34.484 356.899 34.818C355.979 36.1416 355.623 37.7762 355.908 39.3626C356.193 40.949 357.096 42.3573 358.419 43.278C358.662 43.4448 358.916 43.5951 359.179 43.728C359.597 43.8502 359.978 44.0734 360.289 44.378C360.468 44.6433 360.578 44.9493 360.609 45.268C361.159 48.478 360.009 51.758 358.309 54.528C357.792 55.5806 356.905 56.4063 355.819 56.848C354.699 57.168 353.249 56.378 353.339 55.228L351.219 55.988C350.219 52.9863 349.548 49.8847 349.219 46.738C348.059 38.458 346.899 30.178 346.439 21.838C346.168 19.2761 346.35 16.6864 346.979 14.188C347.306 12.9433 347.919 11.7922 348.77 10.8268C349.62 9.86138 350.685 9.10838 351.879 8.62797C353.429 8.11797 354.499 8.04797 355.689 6.99797C356.673 5.98421 357.726 5.03869 358.839 4.16797C361.439 2.44062 364.349 1.23494 367.409 0.617972Z" fill="#091240"/>
<path d="M451.299 133.518C446.849 133.518 409.049 124.698 409.049 124.698L405.599 101.838L403.349 86.938C403.349 86.938 417.189 94.938 420.099 98.038C423.009 101.138 427.779 100.038 427.779 100.038L407.969 73.778L420.189 62.458L424.359 58.578L441.949 79.458C441.949 79.458 453.569 95.518 458.179 106.268C458.948 108.119 459.421 110.08 459.579 112.078C460.489 122.078 454.989 133.518 451.299 133.518Z" fill="#8860FB"/>
<path d="M393.839 55.1279C393.839 55.1279 395.839 50.3379 396.839 50.1279C397.839 49.9179 398.379 54.8679 397.529 56.0579C396.679 57.2479 397.399 61.1379 397.739 61.4879C398.079 61.8379 393.249 59.3979 393.839 55.1279Z" fill="url(#paint5_linear)"/>
<path d="M339.719 241.898L340.839 245.268L324.709 251.538L322.389 252.448C322.389 252.448 294.209 195.568 292.669 188.398C291.129 181.228 302.919 117.168 321.369 86.3979C323.035 87.3053 324.647 88.3069 326.199 89.3979C332.659 93.8079 343.599 103.018 346.249 116.168L324.749 159.668L317.389 174.578L331.159 216.078L339.719 241.898Z" fill="#8860FB"/>
<path d="M338.589 246.148C338.589 246.148 350.399 257.058 351.259 259.448C352.119 261.838 351.259 268.158 351.259 268.158H349.039L348.529 274.988C348.529 274.988 347.529 279.778 345.109 279.608C342.901 279.65 340.708 279.986 338.589 280.608C338.589 280.608 330.249 279.928 328.029 277.708C325.809 275.488 324.609 265.078 324.779 262.178C324.949 259.278 324.779 250.738 324.779 250.738L338.589 246.148Z" fill="url(#paint6_linear)"/>
<path d="M351.259 268.158C351.259 268.158 355.469 267.818 357.749 277.378C360.029 286.938 359.569 290.378 359.569 290.378H353.419C353.419 290.378 351.949 274.988 348.649 273.378L349.039 268.148L351.259 268.158Z" fill="#3F3D56"/>
<path d="M382.059 297.458L378.429 324.008C378.197 325.71 377.316 327.256 375.97 328.324C374.625 329.392 372.919 329.898 371.209 329.738L297.409 322.738C296.541 322.665 295.695 322.421 294.921 322.021C294.147 321.621 293.46 321.073 292.898 320.407C292.336 319.741 291.911 318.971 291.647 318.141C291.383 317.31 291.285 316.436 291.359 315.568C291.359 315.438 291.359 315.298 291.409 315.168L294.889 290.928C295.127 289.273 295.979 287.769 297.277 286.715C298.574 285.66 300.221 285.133 301.889 285.238L375.889 289.918C377.649 290.029 379.294 290.833 380.462 292.155C381.63 293.476 382.226 295.207 382.119 296.968C382.099 297.128 382.079 297.298 382.059 297.458Z" fill="#3F3D56"/>
<path d="M442.639 418.978L437.839 407.548L452.839 398.448L459.199 413.348C459.199 413.348 480.289 414.028 489.849 423.248L493.949 431.108H442.839L442.639 418.978Z" fill="#3F3D56"/>
<path d="M302.839 406.678L310.549 396.778L322.229 404.368L317.309 414.778L324.879 429.288C324.879 429.288 330.469 429.058 336.669 434.288C342.869 439.518 340.779 440.888 340.779 440.888H310.149L292.539 414.778C292.539 414.778 298.839 407.078 302.839 406.678Z" fill="#3F3D56"/>
<path d="M351.189 67.458C351.189 67.458 342.549 67.458 342.039 72.568L344.769 91.568L355.189 95.838L353.139 106.458L383.709 130.708L348.009 72.638C349.334 71.089 350.407 69.3409 351.189 67.458Z" fill="#8860FB"/>
<path d="M383.109 74.1279L377.729 69.5179C377.57 71.8514 377.828 74.1945 378.489 76.438C379.549 79.238 384.569 122.118 383.709 130.658L389.839 100.078L384.549 91.0779L386.599 84.5879L383.109 74.1279Z" fill="#8860FB"/>
<path d="M371.409 83.408L369.019 89.728L373.629 94.628L372.539 112.528L383.709 130.668L382.909 112.658L376.369 93.948L377.689 88.478L374.839 83.338L371.409 83.408Z" fill="#8860FB"/>
<path d="M351.189 67.458C351.189 67.458 342.549 67.458 342.039 72.568L344.769 91.568L355.189 95.838L353.139 106.458L383.709 130.708L348.009 72.638C349.334 71.089 350.407 69.3409 351.189 67.458Z" fill="url(#paint7_linear)"/>
<path d="M383.109 74.1279L377.729 69.5179C377.57 71.8514 377.828 74.1945 378.489 76.438C379.549 79.238 384.569 122.118 383.709 130.658L389.839 100.078L384.549 91.0779L386.599 84.5879L383.109 74.1279Z" fill="url(#paint8_linear)"/>
<path d="M371.409 83.408L369.019 89.728L373.629 94.628L372.539 112.528L383.709 130.668L382.909 112.658L376.369 93.948L377.689 88.478L374.839 83.338L371.409 83.408Z" fill="url(#paint9_linear)"/>
<path d="M386.619 135.458L395.949 149.918L396.179 218.638L409.499 241.698C409.499 241.698 396.499 183.938 400.789 165.008C405.079 146.078 403.349 143.008 403.349 143.008L386.619 135.458Z" fill="url(#paint10_linear)"/>
<path opacity="0.24" d="M298.459 184.258C301.229 195.038 328.029 249.658 328.029 249.658L324.709 251.538L322.389 252.448C322.389 252.448 294.209 195.568 292.669 188.398C291.129 181.228 302.919 117.168 321.369 86.398C322.779 83.578 334.909 78.068 342.309 74.928L342.939 80.478L326.199 89.358C326.199 89.358 322.309 100.078 317.429 114.358C308.639 140.078 296.659 177.328 298.459 184.258Z" fill="white"/>
<path d="M451.299 133.518C446.849 133.518 409.049 124.698 409.049 124.698L405.599 101.838V101.458L444.179 118.678C444.179 118.678 458.959 122.078 459.579 112.078C460.489 122.078 454.989 133.518 451.299 133.518Z" fill="url(#paint11_linear)"/>
<path d="M427.779 100.078C427.779 100.078 438.109 118.078 444.229 118.668C447.006 118.996 449.805 119.1 452.599 118.978L454.699 106.978L420.189 62.458L407.969 73.798L427.779 100.078Z" fill="url(#paint12_linear)"/>
<path opacity="0.24" d="M454.689 397.388L449.609 400.338C449.609 400.338 429.999 309.568 427.609 304.338C425.219 299.108 386.839 234.708 386.839 234.708L388.839 218.918L389.419 218.628L398.609 239.458L435.609 303.628L440.289 324.238L454.689 397.388Z" fill="white"/>
<path opacity="0.24" d="M382.059 297.458L378.429 324.008C378.197 325.71 377.316 327.256 375.97 328.324C374.625 329.392 372.919 329.898 371.209 329.738L297.409 322.738C296.38 322.639 295.387 322.303 294.509 321.757C293.632 321.21 292.892 320.468 292.349 319.588H295.639L362.409 325.588C362.409 325.588 371.899 326.488 374.119 319.978C376.339 313.468 379.269 291.078 379.269 291.078C380.277 291.78 381.072 292.748 381.564 293.874C382.057 295 382.228 296.241 382.059 297.458Z" fill="white"/>
<path opacity="0.24" d="M371.209 329.738L366.479 365.798L292.539 363.818L372.439 373.378L376.329 328.018L371.209 329.738Z" fill="white"/>
<path d="M753.839 384.578L560.609 381.828C560.609 381.828 553.849 379.008 552.159 373.378C550.469 367.748 550.469 321.568 552.159 312.738C553.849 303.908 567.839 290.368 567.839 290.368C567.839 290.368 581.349 256.248 584.709 241.468C588.069 226.688 609.389 224.018 609.389 224.018H707.119C707.959 227.948 708.929 232.018 710.059 236.248C711.429 241.398 713.059 246.778 714.889 252.428C718.159 262.368 722.239 273.128 727.289 284.858C727.349 284.988 727.409 285.128 727.459 285.258C731.172 293.878 734.506 302.265 737.459 310.418C738.539 313.411 739.566 316.371 740.539 319.298C743.079 326.878 745.256 334.235 747.069 341.368C749.519 350.812 751.37 360.401 752.609 370.078C753.242 375.071 753.652 379.905 753.839 384.578Z" fill="#8860FB"/>
<path d="M645.979 76.458C641.629 75.668 637.139 75.548 632.979 74.198C635.099 77.358 637.222 80.5147 639.349 83.668C641.231 86.6704 643.39 89.4894 645.799 92.088C649.329 95.678 653.979 98.358 659.009 98.708C662.598 98.9719 666.158 97.9038 669.009 95.708C673.289 92.258 670.829 90.188 667.429 87.108C661.412 81.6272 653.982 77.9383 645.979 76.458Z" fill="#8860FB"/>
<path d="M600.299 51.948C599.601 53.2823 598.819 54.5715 597.959 55.808L601.749 54.968C602.933 54.7403 604.095 54.4056 605.219 53.968C606.832 53.3385 608.161 52.1444 608.959 50.608C609.491 49.5016 609.598 48.238 609.259 47.058C608.699 45.268 607.739 45.788 606.329 46.478C603.853 47.7105 601.766 49.6036 600.299 51.948Z" fill="#8860FB"/>
<path d="M127.709 103.308C125.622 103.079 123.551 102.718 121.509 102.228L124.509 106.728C125.405 108.152 126.429 109.491 127.569 110.728C129.228 112.498 131.467 113.616 133.879 113.878C135.592 113.999 137.289 113.487 138.649 112.438C140.649 110.798 139.509 109.818 137.899 108.348C135.039 105.751 131.509 104.005 127.709 103.308Z" fill="#8860FB"/>
<path d="M100.669 190.368C99.9704 191.699 99.1888 192.985 98.329 194.218L102.119 193.378C103.304 193.15 104.465 192.816 105.589 192.378C107.204 191.748 108.536 190.554 109.339 189.018C109.868 187.91 109.971 186.647 109.629 185.468C109.069 183.678 108.109 184.198 106.709 184.888C104.226 186.118 102.134 188.016 100.669 190.368Z" fill="#8860FB"/>
<path d="M727.539 285.278H591.839C589.976 285.26 588.196 284.507 586.885 283.183C585.574 281.859 584.839 280.071 584.839 278.208C584.84 277.572 584.927 276.94 585.099 276.328L593.099 247.688C594.441 242.861 597.328 238.607 601.317 235.577C605.307 232.546 610.179 230.906 615.189 230.908H708.839C709.259 232.658 709.719 234.438 710.199 236.248C711.569 241.398 713.199 246.778 715.029 252.428C718.299 262.368 722.379 273.128 727.429 284.858C727.444 285.003 727.481 285.144 727.539 285.278Z" fill="#3F3D56"/>
<path d="M752.649 370.078C750.943 371.145 748.971 371.709 746.959 371.708H579.759C576.931 371.711 574.216 370.595 572.208 368.603C570.199 366.611 569.06 363.906 569.039 361.078V330.078C569.038 328.67 569.314 327.276 569.851 325.975C570.389 324.674 571.177 323.491 572.172 322.495C573.166 321.499 574.347 320.708 575.647 320.168C576.947 319.628 578.341 319.349 579.749 319.348H740.599C743.139 326.928 745.316 334.285 747.129 341.418C749.572 350.845 751.415 360.418 752.649 370.078Z" fill="url(#paint13_linear)"/>
<path d="M737.519 310.458H652.089C638.839 294.228 591.839 285.278 591.839 285.278H727.539C731.246 293.898 734.572 302.291 737.519 310.458Z" fill="url(#paint14_linear)"/>
<path d="M601.279 329.768H587.599C581.701 329.768 576.919 334.55 576.919 340.448V354.128C576.919 360.026 581.701 364.808 587.599 364.808H601.279C607.177 364.808 611.959 360.026 611.959 354.128V340.448C611.959 334.55 607.177 329.768 601.279 329.768Z" fill="white"/>
<path d="M739.779 339.588H637.619C636.754 339.588 635.925 339.245 635.314 338.633C634.702 338.022 634.359 337.193 634.359 336.328C634.359 335.463 634.702 334.634 635.314 334.023C635.925 333.411 636.754 333.068 637.619 333.068H739.779C740.644 333.068 741.473 333.411 742.084 334.023C742.696 334.634 743.039 335.463 743.039 336.328C743.039 337.193 742.696 338.022 742.084 338.633C741.473 339.245 740.644 339.588 739.779 339.588Z" fill="#8860FB"/>
<path d="M739.779 342.278H637.619C635.819 342.278 634.359 343.738 634.359 345.538V345.548C634.359 347.348 635.819 348.808 637.619 348.808H739.779C741.579 348.808 743.039 347.348 743.039 345.548V345.538C743.039 343.738 741.579 342.278 739.779 342.278Z" fill="#8860FB"/>
<path d="M739.779 357.998H637.619C636.754 357.998 635.925 357.655 635.314 357.043C634.702 356.432 634.359 355.603 634.359 354.738C634.359 353.873 634.702 353.044 635.314 352.433C635.925 351.821 636.754 351.478 637.619 351.478H739.779C740.644 351.478 741.473 351.821 742.084 352.433C742.696 353.044 743.039 353.873 743.039 354.738C743.039 355.603 742.696 356.432 742.084 357.043C741.473 357.655 740.644 357.998 739.779 357.998Z" fill="#8860FB"/>
<path d="M664.679 209.388L668.879 197.718C669.585 195.731 670.889 194.012 672.612 192.796C674.334 191.581 676.391 190.928 678.499 190.928H702.729L704.599 209.158L664.679 209.388Z" fill="white"/>
<path opacity="0.16" d="M693.109 190.928L701.559 209.398L704.559 209.168L702.689 190.928H693.109Z" fill="#222A72"/>
</g>
<defs>
<linearGradient id="paint0_linear" x1="385.649" y1="327.808" x2="372.409" y2="370.888" gradientUnits="userSpaceOnUse">
<stop stop-opacity="0"/>
<stop offset="0.91" stop-opacity="0.8"/>
<stop offset="1"/>
</linearGradient>
<linearGradient id="paint1_linear" x1="393.739" y1="50.148" x2="420.189" y2="50.148" gradientUnits="userSpaceOnUse">
<stop stop-color="#ECC4D7"/>
<stop offset="0.42" stop-color="#EFD4D1"/>
<stop offset="1" stop-color="#F2EAC9"/>
</linearGradient>
<linearGradient id="paint2_linear" x1="7936.15" y1="3764.09" x2="6745.09" y2="2303.29" gradientUnits="userSpaceOnUse">
<stop stop-opacity="0"/>
<stop offset="0.91" stop-opacity="0.8"/>
<stop offset="1"/>
</linearGradient>
<linearGradient id="paint3_linear" x1="14011.8" y1="25890" x2="10111" y2="26002.8" gradientUnits="userSpaceOnUse">
<stop stop-opacity="0"/>
<stop offset="0.91" stop-opacity="0.8"/>
<stop offset="1"/>
</linearGradient>
<linearGradient id="paint4_linear" x1="19095.9" y1="31416.2" x2="21502.8" y2="31416.2" gradientUnits="userSpaceOnUse">
<stop stop-color="#ECC4D7"/>
<stop offset="0.42" stop-color="#EFD4D1"/>
<stop offset="1" stop-color="#F2EAC9"/>
</linearGradient>
<linearGradient id="paint5_linear" x1="2182.09" y1="4842.42" x2="2251.21" y2="4792.78" gradientUnits="userSpaceOnUse">
<stop stop-color="#ECC4D7"/>
<stop offset="0.42" stop-color="#EFD4D1"/>
<stop offset="1" stop-color="#F2EAC9"/>
</linearGradient>
<linearGradient id="paint6_linear" x1="9970.79" y1="7506.87" x2="10693.3" y2="7506.87" gradientUnits="userSpaceOnUse">
<stop stop-color="#ECC4D7"/>
<stop offset="0.42" stop-color="#EFD4D1"/>
<stop offset="1" stop-color="#F2EAC9"/>
</linearGradient>
<linearGradient id="paint7_linear" x1="16079.1" y1="7215.97" x2="16223.1" y2="15144.8" gradientUnits="userSpaceOnUse">
<stop stop-opacity="0"/>
<stop offset="0.91" stop-opacity="0.8"/>
<stop offset="1"/>
</linearGradient>
<linearGradient id="paint8_linear" x1="374.479" y1="62.4879" x2="398.699" y2="164.688" gradientUnits="userSpaceOnUse">
<stop stop-opacity="0"/>
<stop offset="0.87" stop-opacity="0.74"/>
<stop offset="0.91" stop-opacity="0.8"/>
<stop offset="1"/>
</linearGradient>
<linearGradient id="paint9_linear" x1="6090.63" y1="5723.65" x2="6916.74" y2="9589.28" gradientUnits="userSpaceOnUse">
<stop stop-opacity="0"/>
<stop offset="0.91" stop-opacity="0.8"/>
<stop offset="1"/>
</linearGradient>
<linearGradient id="paint10_linear" x1="10516.8" y1="-34303.1" x2="2531.51" y2="-28246.8" gradientUnits="userSpaceOnUse">
<stop stop-opacity="0"/>
<stop offset="0.91" stop-opacity="0.8"/>
<stop offset="1"/>
</linearGradient>
<linearGradient id="paint11_linear" x1="24700" y1="4992.85" x2="23809.8" y2="7392.54" gradientUnits="userSpaceOnUse">
<stop stop-opacity="0"/>
<stop offset="0.91" stop-opacity="0.8"/>
<stop offset="1"/>
</linearGradient>
<linearGradient id="paint12_linear" x1="21155.1" y1="8490.74" x2="22197.5" y2="2987.78" gradientUnits="userSpaceOnUse">
<stop stop-opacity="0"/>
<stop offset="0.91" stop-opacity="0.8"/>
<stop offset="1"/>
</linearGradient>
<linearGradient id="paint13_linear" x1="113693" y1="17920.2" x2="118129" y2="32049.4" gradientUnits="userSpaceOnUse">
<stop stop-opacity="0"/>
<stop offset="0.91" stop-opacity="0.8"/>
<stop offset="1"/>
</linearGradient>
<linearGradient id="paint14_linear" x1="96418.7" y1="8414.89" x2="100884" y2="18017.5" gradientUnits="userSpaceOnUse">
<stop stop-opacity="0"/>
<stop offset="0.91" stop-opacity="0.8"/>
<stop offset="1"/>
</linearGradient>
<clipPath id="clip0">
<rect width="701" height="491" fill="white" transform="translate(0.458984)"/>
</clipPath>
</defs>
</svg>
