<svg width="513" height="372" viewBox="0 0 513 372" fill="none" xmlns="http://www.w3.org/2000/svg">
<path d="M396.959 309.55C398.424 311.014 400.344 311.747 402.263 311.747C404.182 311.747 406.102 311.015 407.567 309.55L408.627 308.49L409.687 309.55C411.152 311.014 413.072 311.747 414.991 311.747C416.91 311.747 418.83 311.015 420.295 309.55C423.224 306.621 423.224 301.872 420.295 298.944L419.234 297.883L420.295 296.822C423.224 293.893 423.224 289.144 420.295 286.215C417.365 283.286 412.617 283.286 409.688 286.215L408.628 287.275L407.568 286.215C404.638 283.286 399.89 283.286 396.961 286.215C394.032 289.144 394.032 293.893 396.961 296.822L398.021 297.883L396.961 298.944C394.03 301.872 394.03 306.621 396.959 309.55Z" fill="url(#paint0_linear)" fill-opacity="0.6"/>
<path d="M336.588 309.55C338.053 311.014 339.973 311.747 341.892 311.747C343.811 311.747 345.731 311.015 347.196 309.55L348.256 308.49L349.316 309.55C350.781 311.014 352.701 311.747 354.62 311.747C356.539 311.747 358.459 311.015 359.924 309.55C362.853 306.621 362.853 301.872 359.924 298.944L358.863 297.883L359.924 296.822C362.853 293.893 362.853 289.144 359.924 286.215C356.994 283.286 352.246 283.286 349.316 286.215L348.256 287.275L347.196 286.215C344.266 283.286 339.518 283.286 336.589 286.215C333.66 289.144 333.66 293.893 336.589 296.822L337.65 297.883L336.589 298.944C333.659 301.872 333.659 306.621 336.588 309.55Z" fill="url(#paint1_linear)" fill-opacity="0.6"/>
<path d="M299.552 298.943L298.491 297.882L299.552 296.821C302.481 293.892 302.481 289.143 299.552 286.214C296.622 283.285 291.874 283.285 288.945 286.214L287.885 287.274L286.825 286.214C283.895 283.285 279.147 283.285 276.218 286.214C273.289 289.143 273.289 293.892 276.218 296.821L277.279 297.882L276.218 298.943C273.289 301.872 273.289 306.621 276.218 309.549C277.683 311.013 279.603 311.746 281.522 311.746C283.441 311.746 285.361 311.014 286.826 309.549L287.886 308.489L288.946 309.549C290.411 311.013 292.331 311.746 294.25 311.746C296.169 311.746 298.089 311.014 299.554 309.549C302.481 306.621 302.481 301.872 299.552 298.943Z" fill="url(#paint2_linear)" fill-opacity="0.6"/>
<path d="M135.793 239.194C122.713 239.194 112.072 250.697 112.072 264.836C112.072 278.975 122.713 290.477 135.793 290.477C148.873 290.477 159.515 278.974 159.515 264.836C159.515 250.697 148.873 239.194 135.793 239.194ZM135.793 275.477C130.984 275.477 127.072 270.704 127.072 264.836C127.072 258.968 130.984 254.194 135.793 254.194C140.603 254.194 144.515 258.968 144.515 264.836C144.515 270.703 140.603 275.477 135.793 275.477Z" fill="url(#paint3_linear)" fill-opacity="0.6"/>
<path d="M433.593 142.982C431.658 97.0154 393.596 60.2154 347.085 60.2154C335.314 60.2154 323.632 62.6254 312.883 67.2314C291.681 27.9184 251.631 2.48343 206.641 0.28143C162.513 -1.88057 120.914 18.6154 95.3684 55.1024C92.9924 58.4954 93.8174 63.1724 97.2104 65.5474C100.606 67.9234 105.28 67.0984 107.655 63.7054C130.227 31.4664 166.949 13.3584 205.909 15.2634C247.863 17.3164 284.949 42.2594 302.695 80.3564C303.568 82.2294 305.174 83.6594 307.136 84.3094C309.098 84.9594 311.241 84.7714 313.059 83.7884C323.439 78.1804 335.205 75.2154 347.085 75.2154C386.557 75.2154 418.67 107.264 418.67 146.658C418.67 147.563 418.645 148.546 418.588 149.844C418.499 151.888 419.249 153.88 420.663 155.357C422.078 156.835 424.035 157.67 426.081 157.67C426.134 157.67 426.2 157.669 426.266 157.668C465.695 157.719 497.755 189.749 497.755 229.111C497.755 229.947 497.741 230.781 497.713 231.608C496.872 256.038 481.173 277.416 458.119 286.221V263.481C458.119 254.108 450.494 246.483 441.121 246.483H253.648C244.275 246.483 236.65 254.109 236.65 263.481V290.382H217.845C217.848 290.129 217.864 289.879 217.864 289.625C217.864 244.372 181.048 207.555 135.794 207.555C91.8944 207.555 55.9374 242.205 53.8274 285.592C31.6254 276.436 16.6204 255.51 15.7984 231.61C15.7704 230.781 15.7554 229.948 15.7554 229.111C15.7554 191.631 45.0844 160.328 82.5264 157.848C84.6694 157.706 86.6494 156.652 87.9634 154.952C89.2774 153.253 89.8004 151.072 89.3994 148.962C88.0354 141.798 87.3634 134.467 87.4034 127.173C87.4714 114.668 89.6094 102.382 93.7594 90.6564C95.1414 86.7514 93.0964 82.4664 89.1914 81.0844C85.2884 79.7034 81.0014 81.7484 79.6194 85.6524C74.9084 98.9634 72.4804 112.905 72.4034 127.092C72.3734 132.668 72.7104 138.263 73.4074 143.806C32.0654 150.505 0.755371 186.51 0.755371 229.111C0.755371 230.119 0.773371 231.123 0.807371 232.124C1.91237 264.267 23.4734 292.068 54.6344 301.812C56.7644 316.059 62.5814 329.109 71.0634 339.987C71.3594 340.465 71.7074 340.916 72.1174 341.327C87.1774 359.841 110.124 371.695 135.794 371.695C161.465 371.695 184.411 359.841 199.471 341.327C199.881 340.916 200.23 340.464 200.526 339.986C208.294 330.024 213.82 318.24 216.331 305.382H236.651V332.283C236.651 341.656 244.276 349.281 253.649 349.281H277.688C281.831 349.281 285.188 345.923 285.188 341.781C285.188 337.639 281.831 334.281 277.688 334.281H253.649C252.547 334.281 251.651 333.385 251.651 332.283V263.481C251.651 262.379 252.547 261.483 253.649 261.483H441.123C442.225 261.483 443.121 262.38 443.121 263.481V332.283C443.121 333.385 442.225 334.281 441.123 334.281H307.687C303.544 334.281 300.187 337.639 300.187 341.781C300.187 345.923 303.544 349.281 307.687 349.281H441.122C450.495 349.281 458.12 341.656 458.12 332.283V302.052C489.676 292.526 511.59 264.489 512.704 232.122C512.739 231.123 512.756 230.119 512.756 229.111C512.755 183.942 477.874 146.754 433.593 142.982ZM135.793 356.696C116.804 356.696 99.6474 348.751 87.4334 336.026C100.055 322.855 117.348 315.394 135.793 315.394C154.238 315.394 171.532 322.855 184.154 336.026C171.94 348.751 154.782 356.696 135.793 356.696ZM193.369 323.98C178.083 308.888 157.59 300.394 135.793 300.394C113.997 300.394 93.5044 308.889 78.2184 323.981C72.1964 313.926 68.7244 302.176 68.7244 289.627C68.7244 252.645 98.8114 222.557 135.793 222.557C172.775 222.557 202.863 252.644 202.863 289.627C202.863 302.175 199.391 313.925 193.369 323.98Z" fill="url(#paint4_linear)" fill-opacity="0.6"/>
<defs>
<linearGradient id="paint0_linear" x1="419.941" y1="30.9067" x2="333.764" y2="400.055" gradientUnits="userSpaceOnUse">
<stop stop-color="#FF8E44"/>
<stop offset="0.538879" stop-color="#F91362"/>
<stop offset="1" stop-color="#003DBA"/>
</linearGradient>
<linearGradient id="paint1_linear" x1="419.941" y1="30.9067" x2="333.764" y2="400.055" gradientUnits="userSpaceOnUse">
<stop stop-color="#FF8E44"/>
<stop offset="0.538879" stop-color="#F91362"/>
<stop offset="1" stop-color="#003DBA"/>
</linearGradient>
<linearGradient id="paint2_linear" x1="419.941" y1="30.9067" x2="333.764" y2="400.055" gradientUnits="userSpaceOnUse">
<stop stop-color="#FF8E44"/>
<stop offset="0.538879" stop-color="#F91362"/>
<stop offset="1" stop-color="#003DBA"/>
</linearGradient>
<linearGradient id="paint3_linear" x1="419.941" y1="30.9067" x2="333.764" y2="400.055" gradientUnits="userSpaceOnUse">
<stop stop-color="#FF8E44"/>
<stop offset="0.538879" stop-color="#F91362"/>
<stop offset="1" stop-color="#003DBA"/>
</linearGradient>
<linearGradient id="paint4_linear" x1="419.941" y1="30.9067" x2="333.764" y2="400.055" gradientUnits="userSpaceOnUse">
<stop stop-color="#FF8E44"/>
<stop offset="0.538879" stop-color="#F91362"/>
<stop offset="1" stop-color="#003DBA"/>
</linearGradient>
</defs>
</svg>
