<svg width="677" height="745" viewBox="0 0 677 745" fill="none" xmlns="http://www.w3.org/2000/svg">
<g clip-path="url(#clip0)">
<path opacity="0.18" d="M96.7882 700.758C85.88 705.483 74.3768 716.288 78.7401 727.356C126.604 744.769 178.798 744.769 229.736 744.537C353.196 743.976 476.657 743.447 599.953 742.324C610.233 742.324 620.976 742.026 630 737.103C639.024 732.18 645.503 720.946 641.569 711.463C637.867 702.608 627.355 699.106 618.001 696.859C587.122 689.419 555.696 684.469 524.025 682.057C498.308 680.074 469.253 678.323 452.56 658.664C446.247 651.23 442.478 641.879 436.033 634.61C397.457 591.161 306.721 610.523 273.798 647.529C223.654 704.029 159.262 673.632 96.7882 700.758Z" fill="#8860FB"/>
<path d="M217.472 363.145C210.134 384.126 203.787 405.834 203.655 428.071C203.523 450.308 210.266 473.337 225.967 489.065C248.94 512.193 284.706 514.737 317.199 516.026L360.171 517.744C377.062 518.405 394.118 519.066 410.679 515.696C427.24 512.325 443.437 504.363 453.651 490.816C460.221 481.205 464.62 470.28 466.542 458.799C478.177 402.332 459.303 342.164 423.835 296.7C413.523 282.892 400.937 270.937 386.615 261.346C362.749 246.18 291.714 223.448 268.377 248.857C257.766 260.388 251.056 283.748 244.346 297.889C234.235 319.149 225.264 340.932 217.472 363.145Z" fill="white"/>
<path d="M239.52 351.118C233.57 368.102 228.446 385.646 228.347 403.654C228.248 421.661 233.702 440.263 246.395 452.984C264.972 471.586 293.929 473.734 320.174 474.791L354.981 476.179C368.607 477.257 382.314 476.691 395.804 474.493C409.192 471.751 422.248 465.341 430.446 454.372C435.784 446.618 439.35 437.786 440.892 428.5C450.312 382.805 435.041 334.168 406.349 297.394C398.012 286.213 387.829 276.537 376.236 268.78C356.932 256.522 299.482 238.151 280.607 258.67C272.046 268.02 266.592 286.92 261.204 298.319C253.04 315.52 245.802 333.145 239.52 351.118Z" fill="url(#paint0_linear)"/>
<path d="M281.07 652.32C277.764 658.069 274.095 663.587 270.955 669.369C266.162 678.356 262.856 688.963 266.03 698.611C266.473 700.29 267.378 701.812 268.641 703.005C270.329 704.194 272.303 704.912 274.36 705.087C281.042 706.133 287.793 706.685 294.556 706.739C303.812 706.739 313.794 705.648 320.67 699.437C334.454 686.914 333.528 656.087 325.628 640.954C324.863 639.028 323.544 637.373 321.838 636.196C320.132 635.02 318.115 634.376 316.042 634.346C309.795 633.131 303.41 632.787 297.069 633.322C289.962 634.115 288.078 635.833 285.598 642.606C284.348 645.959 282.834 649.207 281.07 652.32Z" fill="#8860FB"/>
<path d="M299.218 653.642C300.877 653.938 302.557 654.103 304.242 654.137C309.398 654.369 315.249 654.336 318.918 650.668C322.587 647 322.654 641.615 322.654 636.626V617.264C322.654 604.477 310.688 606.228 301.3 607.814C299.118 608.072 297.032 608.855 295.218 610.094C291.912 612.704 291.549 617.462 291.417 621.625L290.755 642.011C290.465 644.453 290.83 646.928 291.813 649.181C292.63 650.435 293.721 651.488 295.004 652.26C296.286 653.033 297.727 653.505 299.218 653.642Z" fill="#FDBAAC"/>
<path d="M402.019 652.32C405.324 658.069 408.993 663.587 411.935 669.369C416.761 678.356 420.067 688.962 416.86 698.61C416.417 700.29 415.512 701.812 414.249 703.005C412.567 704.204 410.59 704.923 408.53 705.086C401.859 706.131 395.119 706.684 388.367 706.739C379.111 706.739 369.096 705.648 362.253 699.436C348.436 686.914 349.362 656.087 357.262 640.954C357.926 639.523 358.844 638.224 359.972 637.121C361.965 635.591 364.347 634.652 366.848 634.412C373.106 633.197 379.502 632.852 385.855 633.388C392.928 634.181 394.813 635.899 397.292 642.672C398.595 646.014 400.177 649.241 402.019 652.32Z" fill="#8860FB"/>
<path d="M383.871 653.642C382.212 653.936 380.532 654.102 378.847 654.137C373.657 654.369 367.84 654.336 364.171 650.668C360.501 647 360.402 641.615 360.402 636.626V617.264C360.402 604.477 372.401 606.228 381.756 607.814C383.949 608.066 386.048 608.848 387.871 610.094C391.177 612.704 391.507 617.462 391.639 621.625L392.3 642.011C392.601 644.45 392.248 646.925 391.276 649.181C390.459 650.435 389.368 651.488 388.085 652.26C386.803 653.033 385.362 653.505 383.871 653.642Z" fill="#FDBAAC"/>
<path d="M374.748 152.013C374.748 152.013 415.075 169.459 419.802 173.424C424.033 176.959 412.563 418.952 411.671 430.78C410.778 442.609 346.255 444.492 318.356 439.173C299.742 435.383 281.526 429.851 263.947 422.652C263.947 422.652 255.122 172.697 260.642 168.237C266.162 163.776 319.48 147.289 319.48 147.289L374.748 152.013Z" fill="#8860FB"/>
<path d="M242.098 450.473C239.09 461.508 237.272 473.932 243.023 483.778C246.856 489.808 252.59 494.389 259.32 496.796C266.009 499.152 272.975 500.629 280.045 501.191C323.359 506.13 367.196 503.751 409.72 494.153C415.652 493.344 421.222 490.83 425.752 486.917C429.51 482.328 431.689 476.651 431.966 470.727C434.487 449.73 430.138 428.483 419.571 410.163C418.837 408.662 417.69 407.401 416.265 406.528C414.895 405.922 413.394 405.672 411.902 405.801L301.861 406.165C293.873 406.364 285.881 406.066 277.93 405.273C271.748 404.546 264.708 400.614 260.278 405.9C250.857 416.936 245.8 436.728 242.098 450.473Z" fill="#473F47"/>
<path d="M242.098 450.473C239.09 461.508 237.272 473.932 243.023 483.778C246.856 489.808 252.59 494.389 259.32 496.796C266.009 499.152 272.975 500.629 280.045 501.191C323.359 506.13 367.196 503.751 409.72 494.153C415.652 493.344 421.222 490.83 425.752 486.917C429.51 482.328 431.689 476.651 431.966 470.727C434.487 449.73 430.138 428.483 419.571 410.163C418.837 408.662 417.69 407.401 416.265 406.528C414.895 405.922 413.394 405.672 411.902 405.801L301.861 406.165C293.873 406.364 285.881 406.066 277.93 405.273C271.748 404.546 264.708 400.614 260.278 405.9C250.857 416.936 245.8 436.728 242.098 450.473Z" fill="url(#paint1_linear)"/>
<path d="M373.227 624.467L379.673 625.094C399.176 627.044 407.043 610.424 408.993 590.93C409.456 586.866 410.414 582.769 411.109 578.738L423.967 503.867L429.917 469.174C430.512 465.672 431.14 462.202 431.702 458.7C433.421 448.523 430.347 438.71 428.396 428.5C427.239 422.322 425.752 415.681 420.992 411.583C416.232 407.486 409.654 407.123 403.506 406.826C387.177 406.099 370.616 405.339 354.717 409.138C353.738 409.264 352.836 409.732 352.171 410.46C351.726 411.301 351.575 412.266 351.742 413.202C352.899 428.732 355.378 444.129 355.047 459.658L352.237 584.421C350.254 603.816 353.725 622.517 373.227 624.467Z" fill="#3F3D56"/>
<path d="M312.241 629.423L305.63 630.05C286.16 632 278.26 615.38 276.31 595.886L255.32 473.634C253.634 463.92 252.213 454.57 251.486 444.691C250.679 438.011 250.902 431.247 252.147 424.635C252.791 421.333 254.18 418.221 256.207 415.536C258.235 412.851 260.848 410.663 263.848 409.138C267.019 407.934 270.374 407.285 273.765 407.222C284.929 406.493 296.139 407.025 307.183 408.808C311.152 409.144 314.966 410.499 318.257 412.74C321.512 415.904 323.805 419.925 324.868 424.337C328.173 433.853 332.438 444.36 331.479 454.537C330.689 461.037 330.314 467.582 330.355 474.13L331.314 517.414L332.933 588.221C332.9 588.616 332.9 589.014 332.933 589.41C335.082 608.673 331.611 627.374 312.241 629.423Z" fill="#3F3D56"/>
<path d="M651.452 374.28V381.417C651.457 382.787 651.191 384.144 650.669 385.41C650.148 386.677 649.382 387.828 648.414 388.798C647.447 389.768 646.298 390.538 645.032 391.063C643.767 391.588 642.41 391.858 641.04 391.858H30.8763C29.5061 391.858 28.1494 391.588 26.884 391.063C25.6185 390.538 24.4692 389.768 23.5019 388.798C22.5346 387.828 21.7683 386.677 21.247 385.41C20.7257 384.144 20.4596 382.787 20.4639 381.417V374.28C20.4639 371.52 21.561 368.873 23.5137 366.921C25.4664 364.969 28.1148 363.872 30.8763 363.872H641.04C643.802 363.872 646.45 364.969 648.403 366.921C650.355 368.873 651.452 371.52 651.452 374.28Z" fill="#473F47"/>
<path d="M461.65 253.251C461.65 253.251 487.829 307.769 485.02 322.637C483.07 333.111 463.005 342.297 455.072 347.054C447.139 351.812 439.172 357.661 430.942 360.899C422.711 364.137 413.323 362.881 404.96 362.617L361.989 361.229C359.939 361.229 357.196 360.469 357.196 358.388C357.196 357.165 358.254 356.207 359.278 355.513C362.493 353.273 366.223 351.886 370.12 351.482C379.405 350.894 388.578 349.14 397.424 346.261L446.874 312.229L434.941 290.125L461.65 253.251Z" fill="#FDBAAC"/>
<path d="M262.989 167.047C254.395 170.781 248.511 175.935 246.461 184.757C243.156 198.403 236.38 209.835 229.934 222.226C226.087 229.749 222.774 237.533 220.017 245.519C218.947 247.947 218.559 250.62 218.893 253.251C219.465 255.241 220.431 257.095 221.736 258.703C229.383 269.364 237.338 279.794 245.602 289.993C250.59 287.686 255.358 284.932 259.849 281.765C261.601 278.99 260.906 272.316 261.171 269.078C261.656 262.47 262.096 255.784 262.493 249.022L262.989 167.047Z" fill="#8860FB"/>
<path d="M360.039 121.682C360.36 123.251 360.569 124.841 360.667 126.44C361.097 132.85 360.436 139.425 362.353 145.537C363.094 147.74 364.092 149.847 365.328 151.815C369.922 159.084 364.237 170.946 360.204 177.554C355.081 185.914 346.982 194.075 336.702 195.066C323.778 196.222 318.158 181.849 315.778 171.64C314.39 165.759 313.2 161.529 315.415 155.714C317.629 149.899 321.067 144.348 322.819 138.202C324.29 131.121 325.13 123.923 325.331 116.693C325.418 114.767 325.926 112.884 326.819 111.175C327.575 110.057 328.551 109.106 329.688 108.379C330.824 107.651 332.098 107.164 333.43 106.946C336.038 106.488 338.699 106.41 341.33 106.714C345.4 106.705 349.409 107.704 352.998 109.622C354.912 111.066 356.52 112.876 357.728 114.946C358.937 117.016 359.722 119.306 360.039 121.682Z" fill="#FDBAAC"/>
<path d="M324.174 132.552C324.174 132.552 329.429 165.428 343.412 159.514C357.394 153.599 360.799 134.733 360.799 134.733L324.174 132.552Z" fill="#DEA095"/>
<path d="M365.724 151.584C365.724 151.584 353.361 189.647 340.338 194.735C340.338 194.735 336.867 197.015 347.114 201.971C357.361 206.928 381.954 175.307 376.136 154.293C375.476 151.606 374.135 149.133 372.242 147.113C370.349 145.094 367.967 143.595 365.327 142.762L365.724 151.584Z" fill="white"/>
<path d="M316.769 147.883C316.769 147.883 314.885 175.241 327.446 192.852C327.446 192.852 323.447 200.187 319.546 200.551C315.646 200.914 303.845 178.446 306.324 160.604C307.481 150.328 314.555 145.306 316.769 147.883Z" fill="white"/>
<path d="M305.894 59.2014C305.894 59.2014 306.555 110.051 311.679 123.301C316.802 136.55 329.529 147.19 341.164 146.132C352.799 145.075 369.459 133.775 375.673 115.602C381.888 97.4298 381.888 54.3113 379.409 48.6613C376.93 43.0113 363.575 25.6978 332.768 31.3148C311.58 35.1806 305.2 51.4367 305.894 59.2014Z" fill="#FDBAAC"/>
<path d="M462.642 226.884C466.939 232.964 469.98 237.358 470.707 238.383C471.826 239.774 472.668 241.366 473.186 243.074C473.379 244.64 473.247 246.229 472.798 247.741C472.348 249.253 471.592 250.657 470.575 251.863C465.98 258.472 459.204 262.965 453.287 268.384C446.627 274.973 440.657 282.224 435.47 290.026C431.458 287.161 427.796 283.834 424.562 280.113C421.462 277.764 419.035 274.64 417.526 271.056C416.017 267.471 415.48 263.552 415.968 259.694L415.373 217.071L415.042 195.76C415.042 192.092 410.315 175.506 412.596 172.631C418.017 165.858 447.767 206.135 462.642 226.884Z" fill="#8860FB"/>
<path d="M299.448 78.0347C299.071 77.9198 298.668 77.9198 298.291 78.0347C297.924 78.2716 297.628 78.6025 297.432 78.9929C296.089 81.3806 295.633 84.1654 296.143 86.8566C296.7 89.0718 297.544 91.2046 298.655 93.2005C299.786 96.4425 301.801 99.3037 304.473 101.461C305.009 101.846 305.667 102.022 306.324 101.956C306.801 101.873 307.241 101.642 307.58 101.296C309.295 99.2704 310.191 96.6779 310.092 94.0266C310.806 90.3226 310.123 86.4855 308.175 83.2552C307.197 81.7945 305.907 80.5688 304.398 79.6662C302.889 78.7635 301.198 78.2063 299.448 78.0347Z" fill="#FDBAAC"/>
<path d="M386.152 77.2086C386.533 77.1264 386.928 77.1264 387.309 77.2086C387.669 77.4534 387.964 77.7823 388.168 78.1668C389.495 80.5722 389.95 83.3615 389.457 86.0636C388.859 88.2654 388.017 90.3932 386.945 92.4075C385.811 95.6382 383.796 98.4878 381.128 100.635C380.584 101.034 379.915 101.222 379.243 101.163C378.783 101.058 378.361 100.829 378.02 100.503C376.311 98.4742 375.416 95.8839 375.508 93.2335C374.771 89.5298 375.456 85.6845 377.425 82.4622C378.4 80.9954 379.689 79.7633 381.198 78.8548C382.707 77.9463 384.399 77.384 386.152 77.2086Z" fill="#FDBAAC"/>
<path d="M297.168 54.5095C296.11 47.9013 295.879 40.2688 300.474 35.4118C301.432 34.3875 302.589 33.5615 303.581 32.5703C304.573 31.5791 306.093 29.5636 307.382 28.0437C311.227 23.884 315.903 20.5785 321.108 18.3415C326.312 16.1045 331.93 14.986 337.595 15.0586C348.896 15.2855 360.075 17.4422 370.65 21.4355C376.6 23.3739 382.505 25.4775 388.367 27.7463C390.645 28.4635 392.75 29.6448 394.548 31.2156C395.822 32.6242 396.679 34.3588 397.023 36.2258C397.367 38.0929 397.186 40.0188 396.499 41.7887C395.507 44.5972 393.458 46.9762 392.631 49.8177C392.136 52.062 391.936 54.3612 392.036 56.6571C391.828 62.7652 390.222 68.7444 387.342 74.1359C385.752 77.5671 383.098 80.3943 379.773 82.1979C380.035 73.9426 378.918 65.7014 376.467 57.8136C369.461 63.4627 360.938 66.9117 351.973 67.7259C343.046 68.4932 334.056 67.471 325.529 64.7192C323.449 63.8223 321.152 63.5469 318.918 63.9262C316.77 64.5209 315.051 67.2303 316.274 69.0145C315.854 68.7473 315.385 68.566 314.894 68.4811C314.403 68.3963 313.9 68.4095 313.414 68.5202C312.929 68.6308 312.47 68.8365 312.064 69.1256C311.659 69.4146 311.314 69.7811 311.051 70.204C310.086 71.9738 309.618 73.9718 309.696 75.9861L309.134 88.6078C301.565 79.7198 299.019 66.0408 297.168 54.5095Z" fill="#091240"/>
<path d="M218.827 253.251C213.406 264.518 208.415 276.049 203.986 287.746C200.664 295.859 198.033 304.237 196.119 312.791C195.424 316.095 193.805 320.622 195.028 323.959C196.912 329.08 204.68 333.078 209.043 335.721C222.948 344.237 237.428 351.778 252.378 358.288C258.173 361.062 264.308 363.062 270.625 364.236C275.581 364.842 280.583 364.986 285.566 364.665L314.257 363.674C316.869 363.674 320.273 362.782 320.505 360.172C320.505 358.354 318.951 356.868 317.398 355.909C312.28 352.672 306.71 350.211 300.87 348.607C295.152 347.054 288.078 348.112 282.69 346.195C276.608 344.048 269.831 337.241 264.443 333.508L233.603 312.229L245.536 290.125L218.827 253.251Z" fill="#FDBAAC"/>
<path d="M418.348 352.242H257.535L243.42 243.933L429.752 246.511L418.348 352.242Z" fill="#8860FB"/>
<path d="M72.2609 363.872L67.6332 391.858L14.2162 720.616C13.9898 722.722 13.0617 724.692 11.581 726.208C10.1004 727.724 8.15298 728.698 6.05157 728.975C2.28329 728.975 -0.162763 725.209 0.597504 720.616L54.0145 391.858L58.5431 363.872H72.2609Z" fill="#473F47"/>
<path d="M604.547 363.872L609.075 391.858L662.625 720.616C662.851 722.722 663.779 724.692 665.26 726.208C666.741 727.724 668.688 728.698 670.789 728.975C674.558 728.975 677.004 725.209 676.243 720.616L622.826 391.858L618.298 363.872H604.547Z" fill="#473F47"/>
<path d="M418.348 352.209H256.741V364.004H418.348V352.209Z" fill="#8860FB"/>
<path d="M418.348 352.209H256.741V364.004H418.348V352.209Z" fill="url(#paint2_linear)"/>
<path d="M131.661 363.872H51.833C54.7398 355.611 60.1409 348.455 67.2905 343.392C74.44 338.33 82.9855 335.611 91.747 335.611C100.509 335.611 109.054 338.33 116.204 343.392C123.353 348.455 128.754 355.611 131.661 363.872Z" fill="#8860FB"/>
<path d="M48.1799 212.348C47.1017 209.187 43.6642 207.499 40.5022 208.577C37.3402 209.654 35.651 213.09 36.7293 216.251L79.6822 342.155C80.7605 345.315 84.198 347.004 87.36 345.926C90.522 344.848 92.2112 341.412 91.1329 338.252L48.1799 212.348Z" fill="#8860FB"/>
<path d="M40.6998 208.399C37.5125 209.4 35.7405 212.794 36.7417 215.979C37.743 219.165 41.1384 220.937 44.3257 219.936L171.288 180.068C174.475 179.067 176.247 175.673 175.246 172.487C174.245 169.301 170.849 167.53 167.662 168.531L40.6998 208.399Z" fill="#8860FB"/>
<path d="M131.661 363.872H51.833C54.7398 355.611 60.1409 348.455 67.2905 343.392C74.44 338.33 82.9855 335.611 91.747 335.611C100.509 335.611 109.054 338.33 116.204 343.392C123.353 348.455 128.754 355.611 131.661 363.872Z" fill="url(#paint3_linear)"/>
<path d="M48.1799 212.348C47.1017 209.187 43.6642 207.499 40.5022 208.577C37.3402 209.654 35.651 213.09 36.7293 216.251L79.6822 342.155C80.7605 345.315 84.198 347.004 87.36 345.926C90.522 344.848 92.2112 341.412 91.1329 338.252L48.1799 212.348Z" fill="url(#paint4_linear)"/>
<path d="M40.6998 208.399C37.5125 209.4 35.7405 212.794 36.7417 215.979C37.743 219.165 41.1384 220.937 44.3257 219.936L171.288 180.068C174.475 179.067 176.247 175.673 175.246 172.487C174.245 169.301 170.849 167.53 167.662 168.531L40.6998 208.399Z" fill="url(#paint5_linear)"/>
<path d="M221.472 184.625C211.225 199.295 199.093 208.679 193.904 206.135C193.671 206.011 193.45 205.867 193.243 205.705L192.549 205.276C177.409 194.669 163.427 166.618 174.038 151.452C184.648 136.286 215.819 139.755 230.959 150.361L231.62 150.857C231.842 150.992 232.053 151.147 232.248 151.32C236.413 155.318 231.752 169.922 221.472 184.625Z" fill="#8860FB"/>
<path d="M221.472 184.625C211.225 199.295 199.093 208.679 193.904 206.135L193.441 205.87C193.36 205.837 193.29 205.779 193.243 205.705C188.648 202.038 193.243 187.202 203.754 172.235C214.266 157.267 226.595 147.817 231.62 150.857H231.851L232.248 151.187C236.413 155.318 231.752 169.922 221.472 184.625Z" fill="#8860FB"/>
<path d="M221.472 184.625C211.225 199.295 199.093 208.679 193.904 206.135L193.441 205.87C193.36 205.837 193.29 205.779 193.243 205.705C188.648 202.038 193.243 187.202 203.754 172.235C214.266 157.267 226.595 147.817 231.62 150.857H231.851L232.248 151.187C236.413 155.318 231.752 169.922 221.472 184.625Z" fill="white"/>
<path d="M562.501 253.218H543.131C538.713 253.218 535.131 256.798 535.131 261.214V356.768C535.131 361.184 538.713 364.764 543.131 364.764H562.501C566.919 364.764 570.5 361.184 570.5 356.768V261.214C570.5 256.798 566.919 253.218 562.501 253.218Z" fill="#8860FB"/>
<path d="M596.832 252.69L577.507 254.021C573.1 254.324 569.773 258.142 570.077 262.547L576.645 357.876C576.949 362.281 580.768 365.607 585.175 365.303L604.5 363.973C608.907 363.67 612.234 359.852 611.93 355.447L605.362 260.118C605.058 255.712 601.239 252.387 596.832 252.69Z" fill="#8860FB"/>
<path d="M418.513 352.242H257.7L243.586 243.933L429.917 246.511L418.513 352.242Z" fill="url(#paint6_linear)"/>
<path d="M250.626 238.581L243.586 243.934L429.917 246.511L423.504 240.233L250.626 238.581Z" fill="url(#paint7_linear)"/>
<path d="M552.588 39.7721C551.948 47.7137 548.575 55.1885 543.042 60.9242C538.074 65.8215 534.539 71.9834 532.821 78.7435C532.342 80.8129 532.08 82.9478 531.71 85.2786H501.199C500.981 83.732 500.829 82.1853 500.524 80.6822C499.239 74.1461 496.134 68.1054 491.567 63.2551C487.529 59.1452 484.351 54.2724 482.217 48.9213C480.405 43.886 479.719 38.5143 480.21 33.1854C480.701 27.8565 482.355 22.7001 485.057 18.0801C487.759 13.4601 491.442 9.48891 495.846 6.44681C500.251 3.40472 505.27 1.3658 510.549 0.473904C511.529 0.321417 512.488 0.212489 513.425 0.125354C518.728 -0.315934 524.063 0.411129 529.054 2.25525C534.045 4.09937 538.57 7.01564 542.311 10.7984C546.052 14.5811 548.917 19.1381 550.704 24.1481C552.49 29.158 553.156 34.4989 552.653 39.7939L552.588 39.7721Z" fill="white"/>
<path d="M549.616 39.7721C548.993 47.7137 545.626 55.1915 540.093 60.9243C535.118 65.8202 531.576 71.9819 529.85 78.7435C529.37 80.813 529.131 82.9478 528.738 85.2787H504.221C504.003 83.732 503.851 82.1853 503.546 80.6823C502.261 74.1462 499.156 68.1054 494.589 63.2551C490.551 59.1452 487.372 54.2725 485.239 48.9213C483.427 43.886 482.741 38.5144 483.232 33.1854C483.723 27.8565 485.377 22.7001 488.079 18.0801C490.781 13.4601 494.464 9.48892 498.868 6.44683C503.273 3.40473 508.292 1.36582 513.57 0.473917C514.551 0.321429 515.51 0.212502 516.447 0.125366C521.245 0.519025 525.918 1.86153 530.193 4.07493C534.468 6.28833 538.26 9.32853 541.35 13.019C544.44 16.7096 546.766 20.9769 548.192 25.5732C549.619 30.1695 550.118 35.0033 549.66 39.7939L549.616 39.7721Z" fill="url(#paint8_linear)"/>
<path d="M532.407 85.2133H502.158C499.967 85.2133 498.192 86.9884 498.192 89.178V89.1998C498.192 91.3894 499.967 93.1644 502.158 93.1644H532.407C534.597 93.1644 536.373 91.3894 536.373 89.1998V89.178C536.373 86.9884 534.597 85.2133 532.407 85.2133Z" fill="#8860FB"/>
<path d="M530.097 91.8792H503.073C501.112 91.8792 499.521 93.4689 499.521 95.4299C499.521 97.391 501.112 98.9807 503.073 98.9807H530.097C532.059 98.9807 533.649 97.391 533.649 95.4299C533.649 93.4689 532.059 91.8792 530.097 91.8792Z" fill="#8860FB"/>
<path d="M528.332 97.6955H504.86C503.163 97.6955 501.788 99.0707 501.788 100.767V100.789C501.788 102.485 503.163 103.86 504.86 103.86H528.332C530.029 103.86 531.405 102.485 531.405 100.789V100.767C531.405 99.0707 530.029 97.6955 528.332 97.6955Z" fill="#8860FB"/>
<path d="M532.407 85.2133H502.158C499.967 85.2133 498.192 86.9884 498.192 89.178V89.1998C498.192 91.3894 499.967 93.1644 502.158 93.1644H532.407C534.597 93.1644 536.373 91.3894 536.373 89.1998V89.178C536.373 86.9884 534.597 85.2133 532.407 85.2133Z" fill="url(#paint9_linear)"/>
<path d="M530.097 91.8792H503.073C501.112 91.8792 499.521 93.4689 499.521 95.4299C499.521 97.391 501.112 98.9807 503.073 98.9807H530.097C532.059 98.9807 533.649 97.391 533.649 95.4299C533.649 93.4689 532.059 91.8792 530.097 91.8792Z" fill="url(#paint10_linear)"/>
<path d="M528.332 97.6955H504.86C503.163 97.6955 501.788 99.0707 501.788 100.767V100.789C501.788 102.485 503.163 103.86 504.86 103.86H528.332C530.029 103.86 531.405 102.485 531.405 100.789V100.767C531.405 99.0707 530.029 97.6955 528.332 97.6955Z" fill="url(#paint11_linear)"/>
<path d="M508.892 85.1044C508.658 79.5322 507.929 73.9917 506.713 68.5486C505.781 64.0301 505.105 59.4628 504.686 54.8683C504.207 47.9193 505.58 43.0614 508.892 40.0117C509.465 39.4033 510.239 39.0239 511.071 38.9443C511.519 38.9403 511.964 39.0249 512.379 39.1931C512.794 39.3614 513.172 39.6099 513.49 39.9246C513.599 39.7939 513.687 39.6632 513.796 39.5542C514.357 38.8434 515.115 38.3131 515.975 38.0294C516.411 37.9027 516.869 37.8682 517.319 37.9282C517.769 37.9882 518.202 38.1414 518.59 38.3779C519.151 38.7059 519.635 39.1519 520.007 39.6849C520.464 39.3922 520.975 39.1933 521.51 39.0998C522.045 39.0063 522.593 39.0201 523.123 39.1403C525.106 39.6414 526.479 41.5148 527.068 44.5427C528.484 51.8186 526.937 59.1597 525.433 66.3267C523.855 72.307 523.172 78.4882 523.406 84.6687L521.227 84.8648C520.965 78.4723 521.662 72.0766 523.297 65.891C524.823 58.6805 526.261 51.8839 524.932 45.0438C524.692 43.8239 524.082 41.7108 522.6 41.3405C522.068 41.244 521.52 41.3615 521.074 41.6673C521.228 42.0495 521.351 42.4427 521.445 42.8436C521.964 44.9829 522.22 47.1775 522.208 49.3788C522.228 49.7242 522.174 50.0698 522.05 50.3928C521.926 50.7158 521.734 51.0087 521.489 51.2522C521.265 51.4537 520.991 51.5921 520.697 51.6533C520.402 51.7146 520.096 51.6964 519.811 51.6007C519.324 51.3877 518.895 51.0608 518.562 50.6475C518.228 50.2343 517.998 49.7468 517.893 49.2263C517.211 47.1981 517.083 45.0248 517.522 42.9308C517.705 42.2954 518.001 41.6979 518.394 41.1662C518.164 40.7942 517.851 40.481 517.479 40.2513C517.348 40.1669 517.2 40.1116 517.046 40.0891C516.892 40.0666 516.735 40.0773 516.585 40.1206C516.138 40.287 515.751 40.5828 515.474 40.9702C515.299 41.1662 515.169 41.3623 515.016 41.5584C516.812 43.9949 517.593 47.0322 517.195 50.0323C516.977 51.5354 516.084 52.9731 514.515 52.9731C513.973 52.9146 513.461 52.7002 513.039 52.356C512.618 52.0118 512.305 51.5527 512.139 51.0343C511.486 49.5777 511.161 47.9953 511.187 46.3992C511.214 44.8031 511.591 43.2323 512.292 41.798H512.183C511.66 41.297 511.333 41.188 511.202 41.2098C510.902 41.2955 510.631 41.4612 510.418 41.6891C507.65 44.2378 506.473 48.6599 506.909 54.7594C507.329 59.2647 507.991 63.7442 508.892 68.1783C510.124 73.7511 510.853 79.4231 511.071 85.1262L508.892 85.1044ZM513.861 43.715C513.161 45.7819 513.262 48.0363 514.144 50.0323C514.25 50.2914 514.414 50.5226 514.624 50.7076C514.879 50.4155 515.032 50.0486 515.06 49.662C515.287 47.6286 514.86 45.5756 513.839 43.8021L513.861 43.715ZM519.462 43.9328C519.308 45.5118 519.479 47.1055 519.963 48.6164C519.932 47.0713 519.757 45.5326 519.44 44.02L519.462 43.9328Z" fill="#8860FB"/>
</g>
<defs>
<linearGradient id="paint0_linear" x1="342.487" y1="544.111" x2="320.16" y2="55.6981" gradientUnits="userSpaceOnUse">
<stop offset="0.01"/>
<stop offset="0.08" stop-opacity="0.69"/>
<stop offset="0.21" stop-opacity="0.32"/>
<stop offset="1" stop-opacity="0"/>
</linearGradient>
<linearGradient id="paint1_linear" x1="54208.5" y1="28598.3" x2="53992.3" y2="20583" gradientUnits="userSpaceOnUse">
<stop stop-color="#E5C6D6"/>
<stop offset="0.08" stop-opacity="0.69"/>
<stop offset="0.21" stop-opacity="0.32"/>
<stop offset="1" stop-opacity="0"/>
</linearGradient>
<linearGradient id="paint2_linear" x1="29779" y1="1952.64" x2="29778.4" y2="2328.16" gradientUnits="userSpaceOnUse">
<stop offset="0.01"/>
<stop offset="0.08" stop-opacity="0.69"/>
<stop offset="0.21" stop-opacity="0.32"/>
<stop offset="1" stop-opacity="0"/>
</linearGradient>
<linearGradient id="paint3_linear" x1="15396.4" y1="6817.26" x2="17324.2" y2="6817.26" gradientUnits="userSpaceOnUse">
<stop offset="0.01"/>
<stop offset="0.08" stop-opacity="0.69"/>
<stop offset="0.21" stop-opacity="0.32"/>
<stop offset="1" stop-opacity="0"/>
</linearGradient>
<linearGradient id="paint4_linear" x1="2327.04" y1="30304.6" x2="2528.59" y2="30304.6" gradientUnits="userSpaceOnUse">
<stop offset="0.01"/>
<stop offset="0.08" stop-opacity="0.69"/>
<stop offset="0.21" stop-opacity="0.32"/>
<stop offset="1" stop-opacity="0"/>
</linearGradient>
<linearGradient id="paint5_linear" x1="2369.07" y1="26573.4" x2="2878.04" y2="26573.4" gradientUnits="userSpaceOnUse">
<stop offset="0.01"/>
<stop offset="0.08" stop-opacity="0.69"/>
<stop offset="0.21" stop-opacity="0.32"/>
<stop offset="1" stop-opacity="0"/>
</linearGradient>
<linearGradient id="paint6_linear" x1="32842.3" y1="11288.1" x2="35862.7" y2="26086.4" gradientUnits="userSpaceOnUse">
<stop offset="0.01"/>
<stop offset="0.08" stop-opacity="0.69"/>
<stop offset="0.21" stop-opacity="0.32"/>
<stop offset="1" stop-opacity="0"/>
</linearGradient>
<linearGradient id="paint7_linear" x1="34303.1" y1="1057.18" x2="34302.2" y2="1409.1" gradientUnits="userSpaceOnUse">
<stop offset="0.01"/>
<stop offset="0.08" stop-opacity="0.69"/>
<stop offset="0.21" stop-opacity="0.32"/>
<stop offset="1" stop-opacity="0"/>
</linearGradient>
<linearGradient id="paint8_linear" x1="622.188" y1="113.293" x2="458.606" y2="6.07373" gradientUnits="userSpaceOnUse">
<stop offset="0.01"/>
<stop offset="0.13" stop-opacity="0.69"/>
<stop offset="0.25" stop-opacity="0.32"/>
<stop offset="1" stop-opacity="0"/>
</linearGradient>
<linearGradient id="paint9_linear" x1="9763.35" y1="658.091" x2="9763.26" y2="767.499" gradientUnits="userSpaceOnUse">
<stop offset="0.01"/>
<stop offset="0.13" stop-opacity="0.69"/>
<stop offset="0.25" stop-opacity="0.32"/>
<stop offset="1" stop-opacity="0"/>
</linearGradient>
<linearGradient id="paint10_linear" x1="8783.45" y1="627.409" x2="8782.16" y2="727.198" gradientUnits="userSpaceOnUse">
<stop offset="0.01"/>
<stop offset="0.13" stop-opacity="0.69"/>
<stop offset="0.25" stop-opacity="0.32"/>
<stop offset="1" stop-opacity="0"/>
</linearGradient>
<linearGradient id="paint11_linear" x1="7685.09" y1="586.014" x2="7684.48" y2="655.3" gradientUnits="userSpaceOnUse">
<stop offset="0.01"/>
<stop offset="0.13" stop-opacity="0.69"/>
<stop offset="0.25" stop-opacity="0.32"/>
<stop offset="1" stop-opacity="0"/>
</linearGradient>
<clipPath id="clip0">
<rect width="676" height="745" fill="white" transform="translate(0.458984)"/>
</clipPath>
</defs>
</svg>
