<svg width="395" height="266" viewBox="0 0 395 266" fill="none" xmlns="http://www.w3.org/2000/svg">
<path d="M307.331 80.8633C290.41 54.2993 261.163 38.0843 229.322 38.0843C225.07 38.0843 220.824 38.3753 216.625 38.9533C199.338 15.1563 171.379 0.695312 141.699 0.695312C91.2246 0.695312 50.0636 41.3353 49.2146 91.6123C19.2686 107.603 0.351562 138.751 0.351562 173.196C0.351562 224.2 41.8466 265.695 92.8506 265.695H301.703C352.707 265.695 394.202 224.2 394.202 173.196C394.202 124.08 355.726 83.7823 307.331 80.8633ZM301.703 240.695H209.777V132.67L248.438 171.329C253.32 176.211 261.235 176.211 266.116 171.329C270.997 166.447 270.997 158.533 266.116 153.651L206.116 93.6533C201.235 88.7733 193.321 88.7723 188.438 93.6533L128.438 153.653C123.557 158.535 123.557 166.449 128.438 171.332C130.879 173.771 134.078 174.992 137.277 174.992C140.476 174.992 143.675 173.771 146.116 171.332L184.777 132.67V240.695H92.8506C55.6316 240.695 25.3516 210.416 25.3516 173.196C25.3516 145.916 41.6096 121.47 66.7706 110.918C71.7356 108.835 74.8106 103.808 74.3996 98.4393C74.2676 96.7183 74.2016 94.9553 74.2016 93.1963C74.2016 55.9763 104.481 25.6963 141.699 25.6963C165.542 25.6963 187.866 38.4913 199.96 59.0883C202.741 63.8243 208.285 66.1923 213.634 64.9193C218.747 63.7023 224.027 63.0853 229.322 63.0853C254.401 63.0853 277.275 76.8713 289.02 99.0643C291.231 103.242 295.605 105.836 300.335 105.714C300.791 105.704 301.244 105.694 301.701 105.694C338.921 105.694 369.2 135.975 369.2 173.196C369.202 210.416 338.921 240.695 301.703 240.695Z" fill="white"/>
</svg>
