<svg width="433" height="426" viewBox="0 0 433 426" fill="none" xmlns="http://www.w3.org/2000/svg">
<g clip-path="url(#clip0)">
<path opacity="0.24" d="M130.999 124.6H16.219C7.51498 124.6 0.458984 131.656 0.458984 140.36V314.47C0.458984 323.174 7.51498 330.23 16.219 330.23H130.999C139.703 330.23 146.759 323.174 146.759 314.47V140.36C146.759 131.656 139.703 124.6 130.999 124.6Z" fill="#8860FB"/>
<path opacity="0.24" d="M393.479 10.09H202.469C187.983 10.09 176.239 21.8335 176.239 36.32V326.07C176.239 340.556 187.983 352.3 202.469 352.3H393.479C407.965 352.3 419.709 340.556 419.709 326.07V36.32C419.709 21.8335 407.965 10.09 393.479 10.09Z" fill="#8860FB"/>
<path d="M405.819 0H214.809C200.323 0 188.579 11.7436 188.579 26.23V315.98C188.579 330.466 200.323 342.21 214.809 342.21H405.819C420.306 342.21 432.049 330.466 432.049 315.98V26.23C432.049 11.7436 420.306 0 405.819 0Z" fill="white"/>
<path opacity="0.3" d="M393.009 22.44H311.769C304.252 22.44 298.159 28.5334 298.159 36.05V171.89C298.159 179.407 304.252 185.5 311.769 185.5H393.009C400.526 185.5 406.619 179.407 406.619 171.89V36.05C406.619 28.5334 400.526 22.44 393.009 22.44Z" fill="#8860FB"/>
<path opacity="0.16" d="M280.619 48.62H225.499C219.115 48.62 213.939 53.7956 213.939 60.18V200.12C213.939 206.504 219.115 211.68 225.499 211.68H280.619C287.003 211.68 292.179 206.504 292.179 200.12V60.18C292.179 53.7956 287.003 48.62 280.619 48.62Z" fill="#8860FB"/>
<path opacity="0.16" d="M379.769 215.42H316.329C312.242 215.42 308.929 218.733 308.929 222.82V274.86C308.929 278.947 312.242 282.26 316.329 282.26H379.769C383.856 282.26 387.169 278.947 387.169 274.86V222.82C387.169 218.733 383.856 215.42 379.769 215.42Z" fill="#8860FB"/>
<path d="M140.719 111.89H25.939C17.2349 111.89 10.179 118.946 10.179 127.65V301.76C10.179 310.464 17.2349 317.52 25.939 317.52H140.719C149.423 317.52 156.479 310.464 156.479 301.76V127.65C156.479 118.946 149.423 111.89 140.719 111.89Z" fill="white"/>
<path opacity="0.25" d="M94.359 133.14H39.239C32.8545 133.14 27.679 138.316 27.679 144.7V284.64C27.679 291.024 32.8545 296.2 39.239 296.2H94.359C100.743 296.2 105.919 291.024 105.919 284.64V144.7C105.919 138.316 100.743 133.14 94.359 133.14Z" fill="#8860FB"/>
<path opacity="0.24" d="M102.729 397.42C98.9689 397.51 93.7289 399.95 95.4489 403.27C95.9849 404.091 96.7306 404.754 97.6089 405.19C109.609 412.32 123.419 415.61 137.119 418.19C177.066 425.593 217.84 427.477 258.299 423.79C261.079 423.54 264.019 423.19 266.219 421.49C278.299 412.15 238.699 408.42 233.989 407.24C224.149 404.79 215.059 401.17 204.899 400.03C171.279 396.22 136.499 396.51 102.729 397.42Z" fill="#8860FB"/>
<path d="M309.469 95.08L363.889 104.34L327.429 157.35L278.899 143.89L309.469 95.08Z" fill="white"/>
<path d="M157.529 344.62C152.529 360.77 146.349 376.81 145.159 393.68C144.963 395.351 145.061 397.043 145.449 398.68C147.069 404.23 153.829 406.13 159.529 407.12C162.259 407.6 165.819 407.69 166.989 405.17C168.159 402.65 165.719 399.89 163.299 398.45C160.879 397.01 157.949 395.5 157.549 392.72C157.289 390.95 158.189 389.25 159.019 387.66C162.779 380.47 165.519 372.81 168.259 365.17L182.169 326.34C184.725 319.688 186.833 312.873 188.479 305.94C190.749 295.35 190.869 284.43 190.829 273.6C190.829 267.76 190.709 261.69 188.169 256.42C186.509 252.98 183.419 249.72 179.719 248.51C174.399 246.76 174.219 248.33 173.719 252.93C172.489 263.21 172.289 273.6 170.919 283.93C168.163 304.499 163.684 324.801 157.529 344.62Z" fill="url(#paint0_linear)"/>
<path d="M203.999 254.45C205.699 304.21 205.152 353.977 202.359 403.75C202.15 405.108 202.341 406.498 202.909 407.75C203.909 409.54 206.269 410.04 208.329 410.22C212.436 410.581 216.574 410.359 220.619 409.56C221.926 409.448 223.138 408.831 223.999 407.84C225.099 406.21 223.999 403.89 222.409 402.77C220.819 401.65 218.779 401.3 216.969 400.54C216.093 400.243 215.333 399.676 214.799 398.92C214.089 397.75 214.379 396.26 214.699 394.92C224.609 352.73 228.979 308.75 222.199 265.92C221.379 260.76 219.059 254.38 213.829 254.18C209.619 254.02 206.679 258.18 204.569 261.81" fill="url(#paint1_linear)"/>
<path d="M234.199 124.07C237.349 126.22 240.689 128.36 244.469 128.87C244.689 125.6 243.059 122.53 242.159 119.37C241.259 116.21 241.389 112.23 244.109 110.37C247.229 108.27 251.539 110.47 253.929 113.37C256.319 116.27 257.839 120.05 259.259 123.66L263.769 135.11C264.462 136.594 264.866 138.195 264.959 139.83C264.841 141.817 264.055 143.706 262.729 145.19C258.219 150.61 250.029 151.77 243.299 149.66C236.569 147.55 231.079 142.8 226.019 137.86C222.249 134.15 212.099 124.38 216.559 118.46C221.379 112.07 230.129 121.3 234.199 124.07Z" fill="#8860FB"/>
<path d="M234.199 124.07C237.349 126.22 240.689 128.36 244.469 128.87C244.689 125.6 243.059 122.53 242.159 119.37C241.259 116.21 241.389 112.23 244.109 110.37C247.229 108.27 251.539 110.47 253.929 113.37C256.319 116.27 257.839 120.05 259.259 123.66L263.769 135.11C264.462 136.594 264.866 138.195 264.959 139.83C264.841 141.817 264.055 143.706 262.729 145.19C258.219 150.61 250.029 151.77 243.299 149.66C236.569 147.55 231.079 142.8 226.019 137.86C222.249 134.15 212.099 124.38 216.559 118.46C221.379 112.07 230.129 121.3 234.199 124.07Z" fill="url(#paint2_linear)"/>
<path d="M229.309 98.96C229.654 100.5 230.352 101.938 231.348 103.161C232.345 104.385 233.611 105.36 235.049 106.01C235.785 106.294 236.5 106.628 237.189 107.01C238.514 107.99 239.519 109.34 240.079 110.89C240.632 112.439 241.444 113.882 242.479 115.16C243.013 115.786 243.726 116.232 244.522 116.438C245.319 116.644 246.159 116.599 246.929 116.31C247.611 115.928 248.17 115.359 248.539 114.67C249.601 112.618 249.868 110.247 249.289 108.01C248.712 105.798 247.887 103.657 246.829 101.63C245.719 99.27 244.609 96.82 242.729 95.01C238.879 91.26 227.689 91.37 229.309 98.96Z" fill="url(#paint3_linear)"/>
<path d="M216.079 73.22C216.215 72.2248 216.042 71.2118 215.585 70.3178C215.127 69.4237 214.406 68.6915 213.519 68.22C211.723 67.3094 209.721 66.8788 207.709 66.97C205.002 66.8729 202.298 67.2312 199.709 68.03C194.709 69.7 190.709 73.62 187.619 77.89C184.529 82.16 182.069 86.89 178.929 91.15C173.259 98.84 164.929 105 155.409 106.06C153.409 106.28 151.239 106.39 149.929 107.86C149.208 108.797 148.759 109.915 148.629 111.09C147.751 115.019 147.816 119.101 148.819 123C149.334 124.944 150.261 126.753 151.538 128.306C152.815 129.859 154.412 131.119 156.219 132C156.949 132.32 157.799 132.65 158.079 133.39C158.23 134.004 158.174 134.651 157.919 135.23C157.342 137.328 157.246 139.53 157.639 141.67C158.101 144.206 159.22 146.576 160.884 148.544C162.548 150.512 164.699 152.009 167.123 152.887C169.546 153.764 172.157 153.991 174.696 153.544C177.234 153.097 179.611 151.992 181.589 150.34C183.172 152.181 185.211 153.574 187.501 154.381C189.791 155.187 192.253 155.379 194.64 154.937C197.028 154.495 199.258 153.434 201.107 151.86C202.956 150.287 204.36 148.256 205.179 145.97C206.239 142.97 206.259 139.77 207.049 136.72C209.049 129.18 215.269 123.72 219.959 117.48C224.057 112.164 226.888 105.984 228.239 99.41C228.898 95.6053 229.232 91.7514 229.239 87.89C229.309 84.28 229.239 80.48 227.469 77.35C225.699 74.22 222.539 72.35 219.469 70.67C215.869 68.77 211.849 67.04 207.829 67.72" fill="#091240"/>
<path d="M202.839 103.87C202.644 106.814 202.724 109.771 203.079 112.7C203.283 115.293 204.029 117.814 205.269 120.1C205.897 121.239 206.78 122.217 207.848 122.957C208.917 123.698 210.142 124.182 211.429 124.37C212.439 124.462 213.458 124.33 214.412 123.984C215.365 123.639 216.232 123.088 216.949 122.37C218.369 120.93 209.779 108.52 211.589 109.44C222.589 115.05 222.399 90.66 222.589 87.95C222.867 84.9184 222.237 81.8726 220.779 79.2C220.03 77.8799 218.943 76.7824 217.631 76.0199C216.318 75.2573 214.827 74.857 213.309 74.86C211.99 74.9973 210.718 75.4277 209.586 76.1197C208.455 76.8118 207.492 77.7481 206.769 78.86C205.337 81.0977 204.358 83.595 203.889 86.21C202.759 91.3416 202.338 96.604 202.639 101.85" fill="url(#paint4_linear)"/>
<path d="M199.269 115.9C197.319 113.9 193.999 113.78 191.509 115.03C189.071 116.425 187.154 118.577 186.049 121.16C185.036 123.236 184.322 125.444 183.929 127.72C183.446 131.323 183.362 134.969 183.679 138.59C184.029 145.77 184.319 152.96 184.109 160.14C184.019 163.42 183.819 166.77 184.709 169.93C186.179 175.17 190.579 179.3 195.709 181.24C200.887 183.029 206.473 183.275 211.789 181.95C212.59 181.82 213.357 181.534 214.049 181.11C214.619 180.678 215.11 180.15 215.499 179.55C216.658 177.942 217.663 176.227 218.499 174.43C220.449 170.21 221.429 165.62 222.399 161.07C224.519 151.14 226.639 141.07 226.629 130.95C226.629 127.79 226.379 124.52 224.869 121.75C223.107 118.775 220.319 116.545 217.029 115.48C213.763 114.438 210.347 113.938 206.919 114C202.364 113.931 197.811 114.249 193.309 114.95" fill="#8860FB"/>
<path d="M223.919 154.13C223.919 154.13 199.799 150.91 198.399 148.94C196.999 146.97 193.629 176.7 193.629 176.7C193.629 176.7 186.059 178.1 185.769 172.49C185.479 166.88 185.599 123.56 189.899 118.3C194.199 113.04 190.819 132.66 210.459 134.91C230.099 137.16 224.759 148.09 224.759 148.09L223.919 154.13Z" fill="url(#paint5_linear)"/>
<path d="M218.219 147.91C228.969 150.25 261.659 148.27 265.619 142.91C266.749 141.4 267.409 138.37 267.529 136.49C267.649 134.61 267.739 132.49 266.879 131.05C265.819 129.23 263.879 129.31 262.199 129.51C251.939 130.623 241.612 130.997 231.299 130.63C224.419 130.46 217.299 130.06 211.019 126.2C207.589 124.09 204.489 121.03 201.099 118.79C197.709 116.55 193.269 114.93 189.899 118.26C187.189 120.92 187.219 124.98 188.899 128.63C192.849 137.03 201.899 142.09 208.399 145.21C212.649 147.29 213.809 146.96 218.219 147.91Z" fill="#8860FB"/>
<path d="M261.079 140.11C269.569 143.11 279.199 140.2 287.779 137.45C289.442 137.032 290.986 136.234 292.289 135.12C293.499 133.93 294.169 132.3 295.289 131.03C297.729 128.28 301.819 127.71 304.729 125.47C305.068 125.245 305.34 124.935 305.519 124.57C305.679 124.117 305.679 123.623 305.519 123.17C305.141 122.164 304.5 121.278 303.663 120.604C302.826 119.93 301.823 119.494 300.759 119.34C298.629 119.059 296.463 119.257 294.419 119.92C289.335 121.271 284.496 123.414 280.079 126.27C276.229 128.77 272.609 131.86 268.179 133.07C265.529 133.8 262.319 134.07 260.899 136.4C260.869 136.4 259.599 139.6 261.079 140.11Z" fill="url(#paint6_linear)"/>
<path d="M232.149 262.36C231.949 264.99 231.669 267.74 230.039 269.81C228.409 271.88 225.739 272.81 223.229 273.64C214.229 276.64 205.009 279.64 195.489 280.45C188.564 281.143 181.573 280.201 175.079 277.7C172.653 276.744 170.35 275.502 168.219 274C166.734 273.052 165.494 271.767 164.599 270.25C163.786 268.445 163.364 266.489 163.359 264.51C161.609 235.11 167.069 204.06 184.479 180.59C185.719 178.92 186.989 177.32 188.349 175.73C197.989 177.36 208.189 177.16 217.959 178.04C229.296 204.627 234.16 233.526 232.149 262.36Z" fill="#8860FB"/>
<path d="M215.389 77.47C215.387 80.0927 214.822 82.6843 213.731 85.0693C212.64 87.4543 211.049 89.5769 209.066 91.2934C207.083 93.0099 204.754 94.2801 202.238 95.0179C199.721 95.7558 197.075 95.9441 194.479 95.57C194.166 95.5772 193.861 95.4723 193.619 95.2742C193.377 95.0762 193.214 94.798 193.159 94.49C191.259 89.02 193.839 82.94 197.459 78.43C199.275 75.9998 201.621 74.0161 204.319 72.63C206.496 71.6984 208.809 71.1243 211.169 70.93C212.569 70.78 215.049 70.65 215.789 72.18C216.399 73.44 215.389 76.05 215.389 77.47Z" fill="#091240"/>
<path d="M276.939 101.41C276.739 102.57 275.589 103.52 273.829 104.24C268.569 106.55 257.769 107.03 251.559 106.59C243.269 106.03 230.919 109.66 226.559 109.38C226.053 109.353 225.549 109.299 225.049 109.22C221.859 108.74 220.859 107.35 222.049 104.64C223.439 101.53 246.879 85.83 249.269 81.49C251.659 77.15 260.899 71.8 260.899 71.8C260.899 71.8 277.779 96.63 276.939 101.41Z" fill="white"/>
<path d="M273.869 104.2C268.609 106.51 257.809 106.99 251.599 106.55C243.309 105.99 230.959 109.62 226.599 109.34C226.093 109.313 225.589 109.259 225.089 109.18C224.729 108.42 225.689 107.59 226.519 107.18C233.965 103.857 241.935 101.86 250.069 101.28C251.429 101.2 253.139 100.76 253.259 99.45C253.259 98.53 252.579 97.38 253.339 96.86C253.459 96.86 256.249 99.09 256.609 99.25C257.447 99.7224 258.398 99.9575 259.359 99.93C262.069 100.13 263.819 101.36 266.409 102.08C268.719 102.72 271.309 102.08 273.509 103.08C273.717 103.15 273.897 103.287 274.019 103.47C274.047 103.595 274.048 103.725 274.022 103.851C273.996 103.977 273.944 104.096 273.869 104.2Z" fill="url(#paint7_linear)"/>
<path d="M273.669 103.36C272.402 103.802 271.071 104.032 269.729 104.04C263.629 104.04 257.499 99.26 254.909 92.04C253.965 89.6261 253.551 87.0377 253.694 84.4498C253.837 81.862 254.535 79.3351 255.739 77.04C257.108 74.3804 259.429 72.3344 262.239 71.31C269.449 68.76 277.859 73.82 281.049 82.66C284.239 91.5 280.929 100.77 273.669 103.36Z" fill="#8860FB"/>
<path d="M269.729 104.04C263.629 104.04 257.499 99.26 254.909 92.04C253.965 89.6261 253.551 87.0376 253.694 84.4498C253.837 81.8619 254.535 79.335 255.739 77.04C261.739 77.32 267.739 82.1 270.329 89.24C271.239 91.6185 271.655 94.1573 271.551 96.7017C271.448 99.2461 270.828 101.743 269.729 104.04Z" fill="url(#paint8_linear)"/>
<path d="M234.919 92.14C234.137 92.143 233.359 92.2575 232.609 92.48C230.249 93.22 228.609 95.34 227.449 97.56C227.114 98.1554 226.887 98.8054 226.779 99.48C226.71 99.8065 226.714 100.144 226.79 100.469C226.866 100.794 227.013 101.098 227.22 101.36C227.427 101.622 227.69 101.834 227.989 101.983C228.287 102.132 228.615 102.213 228.949 102.22C229.589 102.254 230.23 102.186 230.849 102.02C232.782 101.642 234.587 100.782 236.099 99.52C236.849 98.8837 237.443 98.0843 237.837 97.183C238.23 96.2818 238.412 95.3025 238.369 94.32C238.344 93.8695 238.214 93.4312 237.989 93.04C237.359 92.02 235.959 92.11 234.919 92.14Z" fill="url(#paint9_linear)"/>
<path d="M153.079 372.63C152.232 372.441 151.352 372.468 150.519 372.71C148.949 373.3 148.259 375.11 147.749 376.71L139.749 402.26C139.318 403.205 139.271 404.281 139.619 405.26C140.022 405.881 140.595 406.374 141.269 406.68C148.548 410.711 156.682 412.95 164.999 413.21C166.459 413.21 168.119 413.15 169.069 412.04C169.652 411.244 169.951 410.276 169.919 409.29C170.018 406.865 169.495 404.455 168.399 402.29C167.209 399.93 165.399 397.94 164.069 395.64C162.794 393.327 162.052 390.758 161.897 388.122C161.741 385.485 162.176 382.847 163.169 380.4C164.299 377.55 164.309 376.86 161.399 375.34C158.79 373.993 155.98 373.078 153.079 372.63Z" fill="#8860FB"/>
<path d="M206.139 377.81C205.273 377.781 204.414 377.981 203.649 378.39C202.219 379.27 201.899 381.17 201.709 382.85L198.799 409.48C198.552 410.502 198.718 411.579 199.259 412.48C199.772 413.013 200.428 413.385 201.149 413.55C209.076 416.08 217.49 416.69 225.699 415.33C227.149 415.08 228.749 414.66 229.469 413.39C229.884 412.496 229.989 411.49 229.769 410.53C229.39 408.126 228.406 405.859 226.909 403.94C225.269 401.86 223.089 400.27 221.359 398.27C219.659 396.249 218.431 393.875 217.763 391.32C217.096 388.766 217.005 386.094 217.499 383.5C218.049 380.5 217.939 379.8 214.779 378.88C211.976 378.06 209.058 377.699 206.139 377.81Z" fill="#8860FB"/>
<path d="M153.079 372.63C152.232 372.441 151.352 372.468 150.519 372.71C148.949 373.3 148.259 375.11 147.749 376.71L139.749 402.26C139.318 403.205 139.271 404.281 139.619 405.26C140.022 405.881 140.595 406.374 141.269 406.68C148.548 410.711 156.682 412.95 164.999 413.21C166.459 413.21 168.119 413.15 169.069 412.04C169.652 411.244 169.951 410.276 169.919 409.29C170.018 406.865 169.495 404.455 168.399 402.29C167.209 399.93 165.399 397.94 164.069 395.64C162.794 393.327 162.052 390.758 161.897 388.122C161.741 385.485 162.176 382.847 163.169 380.4C164.299 377.55 164.309 376.86 161.399 375.34C158.79 373.993 155.98 373.078 153.079 372.63Z" fill="url(#paint10_linear)"/>
<path d="M206.139 377.81C205.273 377.781 204.414 377.981 203.649 378.39C202.219 379.27 201.899 381.17 201.709 382.85L198.799 409.48C198.552 410.502 198.718 411.579 199.259 412.48C199.772 413.013 200.428 413.385 201.149 413.55C209.076 416.08 217.49 416.69 225.699 415.33C227.149 415.08 228.749 414.66 229.469 413.39C229.884 412.496 229.989 411.49 229.769 410.53C229.39 408.126 228.406 405.859 226.909 403.94C225.269 401.86 223.089 400.27 221.359 398.27C219.659 396.249 218.431 393.875 217.763 391.32C217.096 388.766 217.005 386.094 217.499 383.5C218.049 380.5 217.939 379.8 214.779 378.88C211.976 378.06 209.058 377.699 206.139 377.81Z" fill="url(#paint11_linear)"/>
<path d="M187.079 194.9C182.859 204.54 180.669 215.02 179.549 225.46C177.839 241.92 178.749 258.46 178.039 274.99C178.075 275.706 177.863 276.412 177.439 276.99C176.986 277.415 176.39 277.654 175.769 277.66C175.545 277.709 175.318 277.736 175.089 277.74C172.663 276.784 170.36 275.542 168.229 274.04C166.744 273.092 165.504 271.808 164.609 270.29C163.796 268.485 163.374 266.529 163.369 264.55C161.619 235.15 167.079 204.1 184.489 180.63C188.079 179.44 192.259 178.44 193.419 181.63C194.329 184.3 188.199 192.27 187.079 194.9Z" fill="url(#paint12_linear)"/>
<path d="M284.879 55.88L303.789 27.11L313.119 35.96L291.939 60.58L284.879 55.88Z" fill="url(#paint13_linear)"/>
<path d="M291.859 62.53L323.079 46.77L328.019 59.16L296.509 70.16L291.859 62.53Z" fill="url(#paint14_linear)"/>
<path d="M297.949 71.44L332.759 74.82L330.299 87.93L297.789 80.37L297.949 71.44Z" fill="url(#paint15_linear)"/>
</g>
<defs>
<linearGradient id="paint0_linear" x1="145.069" y1="327.63" x2="190.839" y2="327.63" gradientUnits="userSpaceOnUse">
<stop stop-color="#E5C6D6"/>
<stop offset="0.42" stop-color="#EAD4D0"/>
<stop offset="1" stop-color="#F0E9CB"/>
</linearGradient>
<linearGradient id="paint1_linear" x1="7676.22" y1="65953.9" x2="8213.15" y2="65953.9" gradientUnits="userSpaceOnUse">
<stop stop-color="#E5C6D6"/>
<stop offset="0.42" stop-color="#EAD4D0"/>
<stop offset="1" stop-color="#F0E9CB"/>
</linearGradient>
<linearGradient id="paint2_linear" x1="244.919" y1="120.72" x2="206.209" y2="204.59" gradientUnits="userSpaceOnUse">
<stop stop-color="#010101" stop-opacity="0"/>
<stop offset="0.95" stop-color="#010101"/>
</linearGradient>
<linearGradient id="paint3_linear" x1="7363.51" y1="4716.25" x2="7780.86" y2="4716.25" gradientUnits="userSpaceOnUse">
<stop stop-color="#E5C6D6"/>
<stop offset="0.42" stop-color="#EAD4D0"/>
<stop offset="1" stop-color="#F0E9CB"/>
</linearGradient>
<linearGradient id="paint4_linear" x1="6685.59" y1="9383.11" x2="7089.35" y2="9383.11" gradientUnits="userSpaceOnUse">
<stop stop-color="#E5C6D6"/>
<stop offset="0.42" stop-color="#EAD4D0"/>
<stop offset="1" stop-color="#F0E9CB"/>
</linearGradient>
<linearGradient id="paint5_linear" x1="13196.3" y1="15006" x2="5247.59" y2="3760.87" gradientUnits="userSpaceOnUse">
<stop stop-color="#010101" stop-opacity="0"/>
<stop offset="0.95" stop-color="#010101"/>
</linearGradient>
<linearGradient id="paint6_linear" x1="17477.8" y1="4963.48" x2="19526" y2="4963.48" gradientUnits="userSpaceOnUse">
<stop stop-color="#E5C6D6"/>
<stop offset="0.42" stop-color="#EAD4D0"/>
<stop offset="1" stop-color="#F0E9CB"/>
</linearGradient>
<linearGradient id="paint7_linear" x1="18239.9" y1="2417.64" x2="18273.5" y2="3002.79" gradientUnits="userSpaceOnUse">
<stop stop-color="#010101" stop-opacity="0"/>
<stop offset="0.95" stop-color="#010101"/>
</linearGradient>
<linearGradient id="paint8_linear" x1="6919.03" y1="5218.65" x2="7924.49" y2="4468.06" gradientUnits="userSpaceOnUse">
<stop stop-color="#010101" stop-opacity="0"/>
<stop offset="0.95" stop-color="#010101"/>
</linearGradient>
<linearGradient id="paint9_linear" x1="4263.88" y1="1966.3" x2="4399.43" y2="1966.3" gradientUnits="userSpaceOnUse">
<stop stop-color="#E5C6D6"/>
<stop offset="0.42" stop-color="#EAD4D0"/>
<stop offset="1" stop-color="#F0E9CB"/>
</linearGradient>
<linearGradient id="paint10_linear" x1="9054.51" y1="19230" x2="6982.77" y2="21398.9" gradientUnits="userSpaceOnUse">
<stop stop-color="#010101" stop-opacity="0"/>
<stop offset="0.95" stop-color="#010101"/>
</linearGradient>
<linearGradient id="paint11_linear" x1="10881.4" y1="17625.2" x2="9848.13" y2="21951.2" gradientUnits="userSpaceOnUse">
<stop stop-color="#010101" stop-opacity="0"/>
<stop offset="0.95" stop-color="#010101"/>
</linearGradient>
<linearGradient id="paint12_linear" x1="10313.4" y1="31114.3" x2="-6718.38" y2="31465.2" gradientUnits="userSpaceOnUse">
<stop stop-color="#010101" stop-opacity="0"/>
<stop offset="0.95" stop-color="#010101"/>
</linearGradient>
<linearGradient id="paint13_linear" x1="284.879" y1="43.85" x2="313.119" y2="43.85" gradientUnits="userSpaceOnUse">
<stop stop-color="white" stop-opacity="0"/>
<stop offset="0.95" stop-color="white"/>
</linearGradient>
<linearGradient id="paint14_linear" x1="3814.34" y1="6657.19" x2="4794.92" y2="7165.91" gradientUnits="userSpaceOnUse">
<stop stop-color="white" stop-opacity="0"/>
<stop offset="0.95" stop-color="white"/>
</linearGradient>
<linearGradient id="paint15_linear" x1="-5556.97" y1="1881.94" x2="-5018.95" y2="2804.5" gradientUnits="userSpaceOnUse">
<stop stop-color="white" stop-opacity="0"/>
<stop offset="0.95" stop-color="white"/>
</linearGradient>
<clipPath id="clip0">
<rect width="432" height="426" fill="white" transform="translate(0.458984)"/>
</clipPath>
</defs>
</svg>
