<svg width="502" height="513" viewBox="0 0 502 513" fill="none" xmlns="http://www.w3.org/2000/svg">
<path d="M500.77 29.0073C499.24 14.5583 487.642 2.96132 473.193 1.43032C445.354 -1.51568 418.034 8.14332 398.237 27.9393L376.57 49.6063C373.641 52.5353 373.641 57.2843 376.57 60.2123C379.5 63.1403 384.248 63.1423 387.178 60.2123L408.845 38.5453C409.025 38.3653 409.211 38.1913 409.393 38.0123C415.009 52.5243 421.949 63.9653 430.092 72.1083C438.236 80.2523 449.677 87.1923 464.188 92.8083C464.01 92.9903 463.836 93.1753 463.655 93.3563L394.996 162.015L384.1 151.119C381.17 148.19 376.422 148.19 373.493 151.119C370.564 154.048 370.564 158.797 373.493 161.725L384.39 172.621L368.188 188.823L357.292 177.927C354.362 174.998 349.614 174.998 346.685 177.927C343.756 180.856 343.756 185.605 346.685 188.533L357.581 199.429L341.379 215.63L330.483 204.734C327.553 201.805 322.805 201.805 319.876 204.734C316.947 207.663 316.947 212.412 319.876 215.34L330.772 226.236L260.12 296.888C256.568 300.439 252.094 302.749 247.285 303.609C247.118 303.631 246.952 303.653 246.787 303.687C244.717 304.012 242.591 304.078 240.452 303.851C225.967 302.329 211.75 307.357 201.448 317.658L164.409 354.698C163.302 355.804 161.502 355.804 160.394 354.698L146.172 340.476C145.065 339.369 145.065 337.568 146.172 336.461L183.835 298.797C193.666 288.966 198.752 275.374 197.792 261.508L197.782 261.37C197.297 254.377 199.862 247.523 204.819 242.566L275.961 171.425L286.857 182.321C288.322 183.785 290.242 184.518 292.161 184.518C294.08 184.518 296 183.786 297.465 182.321C300.394 179.392 300.394 174.643 297.465 171.715L286.569 160.82L302.771 144.618L313.667 155.514C315.132 156.978 317.052 157.711 318.971 157.711C320.89 157.711 322.81 156.979 324.275 155.514C327.204 152.585 327.204 147.836 324.275 144.907L313.379 134.011L329.582 117.808L340.478 128.704C341.943 130.168 343.863 130.901 345.782 130.901C347.701 130.901 349.621 130.168 351.086 128.704C354.015 125.775 354.015 121.026 351.086 118.098L340.19 107.202L362.409 84.9833C365.338 82.0543 365.338 77.3053 362.409 74.3773C359.478 71.4473 354.73 71.4493 351.802 74.3773L324.28 101.899C324.28 101.899 324.279 101.899 324.279 101.9L324.278 101.901L297.471 128.708C297.471 128.709 297.47 128.709 297.469 128.71C297.468 128.711 297.468 128.711 297.467 128.712L65.9419 360.235C46.6729 379.503 31.8599 403.329 23.1059 429.134L1.00388 494.288C-0.724124 499.382 0.555875 504.918 4.34388 508.736C7.04388 511.457 10.6259 512.911 14.3109 512.911C15.7959 512.911 17.2979 512.675 18.7649 512.19C24.8119 510.192 30.7959 508 36.7099 505.632H270.813C274.956 505.632 278.313 502.274 278.313 498.132C278.313 493.99 274.956 490.632 270.813 490.632H68.7839C95.6279 476.18 120.388 457.835 141.931 436.293L211.229 366.995C214.055 364.169 216.51 360.986 218.527 357.535L225.096 346.293C226.465 343.951 228.131 341.791 230.049 339.873L251.958 317.964C258.977 316.323 265.473 312.75 270.725 307.5L346.68 231.544C346.68 231.544 346.68 231.544 346.681 231.543L373.482 204.741C373.484 204.738 373.487 204.736 373.49 204.734C373.492 204.731 373.494 204.729 373.497 204.726L474.26 103.962C494.056 84.1693 503.718 56.8493 500.77 29.0073ZM219.443 329.266C216.617 332.092 214.162 335.274 212.145 338.726L205.576 349.968C204.207 352.31 202.541 354.471 200.623 356.388L131.325 425.686C99.0109 458 59.0999 482.757 15.7989 497.366L22.9509 476.285C41.3179 469.547 59.1149 461.084 75.8869 451.057C79.4419 448.932 80.6009 444.326 78.4759 440.771C76.3509 437.216 71.7459 436.057 68.1899 438.182C55.7309 445.631 42.6789 452.177 29.2399 457.745L37.3109 433.954C45.3309 410.315 58.8979 388.491 76.5489 370.842L182.901 264.49C182.993 273.345 179.53 281.895 173.228 288.196L135.565 325.86C128.609 332.815 128.609 344.132 135.565 351.088L149.787 365.31C150.472 365.995 151.209 366.592 151.97 367.142L125.937 393.175C116.705 402.407 106.763 411.114 96.3889 419.055C93.0999 421.573 92.4739 426.28 94.9919 429.569C96.4689 431.498 98.6979 432.511 100.953 432.511C102.543 432.511 104.146 432.007 105.506 430.966C116.403 422.625 126.845 413.479 136.543 403.781L212.054 328.27C216.911 323.413 223.035 320.26 229.617 319.095L219.443 329.266ZM474.059 80.4563C459.359 75.3123 448.145 68.9503 440.698 61.5033C433.251 54.0563 426.889 42.8413 421.745 28.1403C436.396 18.7063 453.88 14.4653 471.612 16.3473C479.074 17.1373 485.063 23.1263 485.853 30.5873C487.732 48.3253 483.492 65.8073 474.059 80.4563Z" fill="url(#paint0_linear)" fill-opacity="0.6"/>
<defs>
<linearGradient id="paint0_linear" x1="410.461" y1="43.324" x2="251.338" y2="527.404" gradientUnits="userSpaceOnUse">
<stop stop-color="#FF8E44"/>
<stop offset="0.538879" stop-color="#F91362"/>
<stop offset="1" stop-color="#003DBA"/>
</linearGradient>
</defs>
</svg>
