<svg width="245" height="91" viewBox="0 0 245 91" fill="none" xmlns="http://www.w3.org/2000/svg">
<g clip-path="url(#clip0)">
<path d="M69.6115 57.0523C71.1333 57.6385 71.7188 59.9215 71.8352 60.9174C72.0697 62.7344 71.5442 63.4371 70.9588 63.4371C70.3733 63.4371 69.5533 62.7344 68.677 61.3289C67.7988 59.9215 67.4479 58.3413 67.9169 57.5202C68.2079 56.9922 68.8515 56.7592 69.6133 57.0523H69.6115ZM60.7205 63.672C61.6569 63.672 62.7096 64.0816 63.646 64.9009C65.4587 66.4247 65.986 68.1816 65.0496 69.4706C64.5224 70.1151 63.646 70.5247 62.6514 70.5247C61.6569 70.5247 60.6042 70.1734 59.9023 69.5289C58.2641 68.1234 57.7969 65.7784 58.8478 64.4913C59.2587 63.9633 59.9023 63.672 60.7205 63.672ZM40.2476 80.6C18.0165 80.6 0 62.5578 0 40.2991C0 18.0404 18.0183 0 40.2458 0C62.4751 0 80.4934 18.0422 80.4934 40.2991C80.4934 47.8546 78.3879 54.944 74.8206 60.9775C74.7025 61.1523 74.4097 61.094 74.3515 60.8592C72.9479 50.9605 66.9224 45.5115 58.1478 43.8729C57.3859 43.7546 57.2696 43.2867 58.2641 43.1702C60.9551 42.9353 64.7569 42.9936 66.746 43.3449C66.8624 42.3491 66.9224 41.2949 66.9224 40.2408C66.9224 25.5376 54.9877 13.5872 40.304 13.5872C25.622 13.5872 13.6874 25.5376 13.6874 40.2408C13.6874 54.944 25.622 66.8945 40.3058 66.8945H41.5331C41.1161 64.5163 40.9395 62.1021 41.0058 59.6885C41.0658 58.0481 41.4167 57.8133 42.1185 59.1023C45.804 65.4871 51.0695 71.2275 61.3642 73.5123C69.7879 75.3876 78.2116 77.5541 87.2789 89.0931C88.0971 90.089 86.8698 91.1431 85.9335 90.3238C76.6916 82.122 68.2679 79.4275 60.6042 79.4275C52.0041 79.4876 46.1549 80.6 40.2458 80.6H40.2476Z" fill="#FF8C00"/>
<path d="M163.058 19.5067V61.125C163.062 61.2774 163.034 61.4288 162.977 61.5702C162.921 61.7117 162.836 61.8401 162.728 61.9479C162.62 62.0556 162.492 62.1404 162.351 62.1971C162.209 62.2538 162.058 62.2812 161.905 62.2777H153.417C153.264 62.2812 153.113 62.2538 152.972 62.1971C152.83 62.1404 152.702 62.0556 152.594 61.9479C152.486 61.8401 152.401 61.7117 152.345 61.5702C152.288 61.4288 152.261 61.2774 152.264 61.125V19.5067C152.261 19.3544 152.288 19.2029 152.345 19.0615C152.401 18.9201 152.486 18.7916 152.594 18.6839C152.702 18.5761 152.83 18.4914 152.972 18.4347C153.113 18.378 153.264 18.3506 153.417 18.3541H161.905C162.058 18.3506 162.209 18.378 162.351 18.4347C162.492 18.4914 162.62 18.5761 162.728 18.6839C162.836 18.7916 162.921 18.9201 162.977 19.0615C163.034 19.2029 163.062 19.3544 163.058 19.5067ZM229.317 18.3541C229.648 18.3541 230.06 18.518 230.47 18.8484C230.719 19.0943 230.718 19.5067 230.637 19.8371L216.625 61.5374C216.54 61.7532 216.393 61.939 216.203 62.0712C216.012 62.2034 215.787 62.2761 215.555 62.2802H207.973C207.479 62.2802 207.066 62.0318 206.902 61.5374L198.739 37.2268L190.581 61.5349C190.496 61.7507 190.349 61.9364 190.158 62.0686C189.967 62.2008 189.742 62.2736 189.51 62.2777H181.928C181.434 62.2777 181.021 62.0318 180.857 61.5349L166.846 19.8346C166.764 19.5067 166.764 19.1763 167.01 18.8484C167.177 18.518 167.589 18.3541 167.917 18.3541H177.394C177.889 18.3541 178.301 18.6819 178.468 19.1763L185.965 43.8174L194.208 19.1763C194.293 18.9605 194.44 18.7748 194.63 18.6425C194.821 18.5103 195.046 18.4376 195.278 18.4335H201.954C202.448 18.4335 202.86 18.6819 203.024 19.1763L211.267 43.8174L218.767 19.1763C218.834 18.9429 218.974 18.7371 219.167 18.5891C219.36 18.4412 219.595 18.3588 219.838 18.3541H229.317ZM243.656 18.3541C244.233 18.3541 244.727 18.8484 244.809 19.5067V61.125C244.813 61.2774 244.785 61.4288 244.728 61.5702C244.672 61.7117 244.587 61.8401 244.479 61.9479C244.371 62.0556 244.243 62.1404 244.102 62.1971C243.96 62.2538 243.809 62.2812 243.656 62.2777H235.168C235.015 62.2812 234.864 62.2538 234.723 62.1971C234.581 62.1404 234.453 62.0556 234.345 61.9479C234.237 61.8401 234.152 61.7117 234.096 61.5702C234.039 61.4288 234.012 61.2774 234.015 61.125V19.5067C234.012 19.3544 234.039 19.2029 234.096 19.0615C234.152 18.9201 234.237 18.7916 234.345 18.6839C234.453 18.5761 234.581 18.4914 234.723 18.4347C234.864 18.378 235.015 18.3506 235.168 18.3541H243.656ZM147.318 60.7972C147.812 61.3735 147.4 62.1957 146.657 62.1957H136.273C136.069 62.2012 135.866 62.1595 135.68 62.0738C135.494 61.988 135.331 61.8606 135.202 61.7014L133.473 59.56C129.846 61.8653 125.558 63.269 121.027 63.269C108.338 63.269 98.0358 52.9668 98.0358 40.2749C98.0358 27.5829 108.338 17.2808 121.027 17.2808C133.719 17.2808 144.021 27.5829 144.021 40.2749C144.021 44.8086 142.702 49.0939 140.394 52.7184L147.318 60.7972ZM126.714 51.5657L122.18 46.0433C121.688 45.4669 122.101 44.5602 122.841 44.5602H132.4C132.894 43.241 133.143 41.758 133.143 40.2749C133.143 33.4358 128.033 27.501 121.027 27.501C114.024 27.501 108.912 33.4358 108.912 40.2749C108.912 47.1139 114.024 52.9668 121.027 52.9668C123.005 53.0488 124.985 52.4725 126.714 51.5657Z" fill="#FF8C00"/>
</g>
<defs>
<clipPath id="clip0">
<rect width="245" height="91" fill="white"/>
</clipPath>
</defs>
</svg>
