<svg width="452" height="452" viewBox="0 0 452 452" fill="none" xmlns="http://www.w3.org/2000/svg">
<path d="M447.267 428.411L337.667 318.811C367.067 285.011 384.867 240.911 384.867 192.711C384.867 86.6106 298.567 0.410645 192.567 0.410645C86.4671 0.410645 0.26709 86.7106 0.26709 192.711C0.26709 298.711 86.5671 385.011 192.567 385.011C240.767 385.011 284.867 367.211 318.667 337.811L428.267 447.411C430.867 450.011 434.367 451.411 437.767 451.411C441.167 451.411 444.667 450.111 447.267 447.411C452.467 442.211 452.467 433.611 447.267 428.411ZM27.1671 192.711C27.1671 101.511 101.367 27.4106 192.467 27.4106C283.667 27.4106 357.767 101.611 357.767 192.711C357.767 283.811 283.667 358.111 192.467 358.111C101.367 358.111 27.1671 283.911 27.1671 192.711Z" fill="#586A8C"/>
</svg>
