<svg width="579" height="552" viewBox="0 0 579 552" fill="none" xmlns="http://www.w3.org/2000/svg">
<path d="M471.832 290.177L456.244 301.341C450.139 305.73 448.758 314.173 453.169 320.249C455.833 323.932 459.993 325.876 464.237 325.876C466.985 325.876 469.765 325.067 472.172 323.322L487.76 312.158C493.859 307.783 495.258 299.326 490.854 293.257C486.444 287.168 477.937 285.763 471.832 290.177Z" fill="url(#paint0_linear)" fill-opacity="0.6"/>
<path d="M528.257 173.092C528.154 173.092 528.058 173.092 527.956 173.092L380.745 173.214L336.659 34.6671C331.735 19.288 319.607 7.18084 304.154 2.3111C277.961 -5.88214 249.995 8.68861 241.765 34.6671L197.691 173.214H61.8056L52.6443 173.092C35.4194 172.22 19.3307 180.022 9.50806 193.842C1.8169 204.569 -1.20692 217.639 0.988717 230.65C3.1972 243.72 10.3683 255.121 21.1668 262.769L140.784 347.871L94.2331 486.655C89.0072 502.131 91.7549 519.075 101.468 531.772C109.346 542.365 120.921 549.282 134.069 551.219C147.211 553.227 160.314 549.91 170.933 542.077L289.215 455.185L407.433 542.025C416.093 548.441 426.539 551.784 437.138 551.784C442.396 551.784 447.705 550.956 452.829 549.262C478.798 540.665 492.864 512.595 484.216 486.655L434.487 338.343C434.461 338.279 434.422 338.221 434.403 338.176L389.515 200.283H515.443L528.154 200.168C528.219 200.168 528.257 200.168 528.289 200.168C540.648 200.168 550.74 210.068 550.843 222.265C550.881 229.572 547.35 236.463 541.399 240.698L508.214 264.257L524.033 286.315L557.166 262.756C570.36 253.408 578.173 238.202 578.083 222.085C577.897 195.016 555.606 173.092 528.257 173.092ZM444.29 523.573C437.209 525.838 429.524 524.638 423.63 520.262L297.304 427.429C292.489 423.907 285.941 423.907 281.126 427.429L154.716 520.307C149.933 523.849 144.033 525.388 138.082 524.426C132.143 523.547 126.917 520.442 123.264 515.54C118.905 509.823 117.705 502.272 120.061 495.278L169.816 346.979C171.716 341.32 169.687 335.116 164.821 331.645L36.9667 240.691C32.0808 237.246 28.8515 232.081 27.8436 226.178C26.8613 220.295 28.2159 214.418 31.7084 209.548C36.1642 203.286 43.6563 199.764 51.7969 200.181L164.147 200.264C164.262 200.264 164.365 200.296 164.474 200.296H279.829C287.347 200.296 293.452 194.239 293.452 186.752C293.452 179.271 287.353 173.208 279.829 173.208H226.273L267.753 42.8411C271.476 31.0613 284.117 24.3887 295.975 28.1677C302.973 30.362 308.475 35.8477 310.709 42.8603L357.819 190.826C357.832 190.865 357.832 190.897 357.845 190.935L408.601 346.857C408.614 346.87 408.614 346.883 408.627 346.895C408.64 346.921 408.64 346.947 408.64 346.979L458.369 495.253C462.279 506.994 455.936 519.704 444.29 523.573Z" fill="url(#paint1_linear)" fill-opacity="0.6"/>
<path d="M287.423 238.196C278.23 238.196 268.767 240.018 260.042 243.463C253.057 246.235 249.648 254.114 252.422 261.069C255.195 268.017 263.117 271.379 270.109 268.652C275.662 266.452 281.639 265.29 287.423 265.29C313.065 265.29 333.943 286.04 333.943 311.543C333.943 337.034 313.065 357.751 287.423 357.751C261.833 357.751 241.007 337.034 241.007 311.543C241.007 309.349 241.187 307.181 241.476 305.005C242.49 297.582 237.264 290.762 229.817 289.761C222.453 288.747 215.5 293.944 214.492 301.361C214.03 304.723 213.767 308.124 213.767 311.543C213.767 351.983 246.804 384.853 287.423 384.853C328.081 384.853 361.183 351.983 361.183 311.543C361.183 271.091 328.088 238.196 287.423 238.196Z" fill="url(#paint2_linear)" fill-opacity="0.6"/>
<defs>
<linearGradient id="paint0_linear" x1="473.341" y1="45.7363" x2="311.085" y2="573.936" gradientUnits="userSpaceOnUse">
<stop stop-color="#FF8E44"/>
<stop offset="0.538879" stop-color="#F91362"/>
<stop offset="1" stop-color="#003DBA"/>
</linearGradient>
<linearGradient id="paint1_linear" x1="473.341" y1="45.7363" x2="311.085" y2="573.936" gradientUnits="userSpaceOnUse">
<stop stop-color="#FF8E44"/>
<stop offset="0.538879" stop-color="#F91362"/>
<stop offset="1" stop-color="#003DBA"/>
</linearGradient>
<linearGradient id="paint2_linear" x1="473.341" y1="45.7363" x2="311.085" y2="573.936" gradientUnits="userSpaceOnUse">
<stop stop-color="#FF8E44"/>
<stop offset="0.538879" stop-color="#F91362"/>
<stop offset="1" stop-color="#003DBA"/>
</linearGradient>
</defs>
</svg>
