<?xml version="1.0" encoding="utf-8"?>
<!-- Generator: Adobe Illustrator 22.0.1, SVG Export Plug-In . SVG Version: 6.00 Build 0)  -->
<svg version="1.1" id="Layer_1" xmlns="http://www.w3.org/2000/svg" xmlns:xlink="http://www.w3.org/1999/xlink" x="0px" y="0px"
	 viewBox="-38 146.5 14 24" style="enable-background:new -38 146.5 14 24;" xml:space="preserve">
<style type="text/css">
	.st0{fill:#C32A3E;stroke:#C32A3E;stroke-width:0.5;stroke-miterlimit:10;}
</style>
<path class="st0" d="M-37.1,170c-0.1,0-0.2,0-0.2,0c-0.2-0.1-0.2-0.3-0.2-0.5l4.3-10.2h-3.9c-0.1,0-0.3-0.1-0.3-0.2
	c-0.1-0.1-0.1-0.3,0-0.4l5.7-11.5c0.1-0.1,0.2-0.2,0.3-0.2h6.1c0.2,0,0.3,0.1,0.3,0.2s0.1,0.3,0,0.4l-4.5,7.1h4.5
	c0.2,0,0.3,0.1,0.3,0.2s0,0.3,0,0.4l-12.2,14.6C-36.9,170-37,170-37.1,170z M-36.5,158.5h3.9c0.1,0,0.2,0.1,0.3,0.2
	c0.1,0.1,0.1,0.2,0,0.3l-3.5,8.4l10.1-12h-4.4c-0.2,0-0.3-0.1-0.3-0.2c-0.1-0.1-0.1-0.3,0-0.4l4.5-7.1h-5.2L-36.5,158.5z"/>
</svg>
