<?xml version="1.0" encoding="utf-8"?>
<!-- Generator: Adobe Illustrator 22.0.1, SVG Export Plug-In . SVG Version: 6.00 Build 0)  -->
<svg version="1.1" id="Layer_1" xmlns="http://www.w3.org/2000/svg" xmlns:xlink="http://www.w3.org/1999/xlink" x="0px" y="0px"
	 viewBox="0 0 234 50" style="enable-background:new 0 0 234 50;" xml:space="preserve">
<style type="text/css">
	.st0{clip-path:url(#SVGID_2_);fill:url(#SVGID_3_);}
	.st1{fill-rule:evenodd;clip-rule:evenodd;fill:#A81428;}
	.st2{fill:#A81428;}
</style>
<g>
	<defs>
		<path id="SVGID_1_" d="M25.2,23.7l1-1v3.5l-1,1V23.7z M27.1,21.9l1-1v3.5l-1,1V21.9z M28.9,20.1l1-1v3.5l-1,1V20.1z M23.9,22.8V50
			l7.4-7.1V15.7L23.9,22.8z M24.1,10.3l1.8-1.8v6.6l-1.8,1.8V10.3z M27.5,7l1.8-1.8v6.6l-1.8,1.8V7z M23.9,7l-7.4,7v13.5l1.9-1.8v0
			l7.4-7l5.4-5.1V0L23.9,7z"/>
	</defs>
	<clipPath id="SVGID_2_">
		<use xlink:href="#SVGID_1_"  style="overflow:visible;"/>
	</clipPath>
	<linearGradient id="SVGID_3_" gradientUnits="userSpaceOnUse" x1="23.8586" y1="36.0664" x2="23.8586" y2="-130.8548">
		<stop  offset="0" style="stop-color:#A3A6A8"/>
		<stop  offset="1" style="stop-color:#FFFFFF"/>
	</linearGradient>
	<rect x="16.5" class="st0" width="14.7" height="50"/>
</g>
<path class="st1" d="M0.1,15.7l7.4,7.1V50l-7.4-7.1V15.7z M0.1,0l7.4,7l7.4,7v13.5l-1.9-1.8l-7.4-7l-5.4-5.1V0z M1.5,19.6L2.9,21
	v5.2l-1.4-1.4V19.6z M4.3,22.3l1.4,1.4v5.2l-1.4-1.4V22.3z M1.5,27.1l1.4,1.4v5.2l-1.4-1.4V27.1z M4.3,29.8l1.4,1.4v5.2L4.3,35V29.8
	z M1.6,3.6l1,1v3.8l-1-1V3.6z M3.6,5.6l1,1v3.8l-1-1V5.6z M3.6,11.1l1,1v3.8l-1-1V11.1z M5.6,13.1l1,1v3.8l-1-1V13.1z"/>
<g>
	<path class="st2" d="M47.3,2h5l7.2,14.6c0.2,0.5,0.4,1,0.5,1.2l0.2,0.6h0.1l0.2-0.6c0.1-0.3,0.2-0.7,0.5-1.2L68.2,2h5V28H68V12.6
		c0-0.8,0-1.3,0.1-1.6l0.1-0.8h-0.1c-0.1,0.4-0.2,0.7-0.3,0.8c-0.3,0.7-0.5,1.3-0.7,1.6l-5.7,11.1h-2.6L53.4,13
		c-0.3-0.6-0.5-1.2-0.7-1.6c-0.1-0.1-0.1-0.4-0.3-0.8h-0.1l0.1,0.8c0.1,1,0.1,1.5,0.1,1.6v15h-5.2V2z"/>
	<path class="st2" d="M83.2,28V2h15.6v3.3H88.4v7.4h8.1v3.3h-8.1v8.5h10.4V28H83.2z"/>
	<path class="st2" d="M110.2,28V5.4h-6.5V2h18.1v3.3h-6.5V28H110.2z"/>
	<path class="st2" d="M129.1,2h7.4c3.5,0,6,0.7,7.6,2.1c1.6,1.4,2.4,3.6,2.4,6.6c0,2.9-0.8,5.1-2.4,6.6c-1.6,1.4-4.1,2.1-7.6,2.1
		h-2.2V28h-5.2V2z M136.5,16.1c1.7,0,2.9-0.4,3.7-1.2c0.8-0.8,1.1-2.2,1.1-4.1s-0.4-3.3-1.1-4.1c-0.8-0.8-2-1.2-3.7-1.2h-2.2v10.7
		H136.5z"/>
	<path class="st2" d="M150.4,28L158,2h5.9l7.6,25.9h-5.2l-1.7-5.9h-7.4l-1.7,5.9H150.4z M163.7,18.7l-2.2-7.8
		c-0.1-0.3-0.1-0.6-0.2-1c-0.1-0.4-0.1-0.7-0.1-0.8l-0.1-1h-0.1l-0.1,1c-0.1,0.2-0.1,0.5-0.2,0.9c-0.1,0.4-0.1,0.7-0.2,0.9l-2.2,7.8
		H163.7z"/>
	<path class="st2" d="M178.5,28.3c0,0-0.3-0.1-1-0.3l-0.8-0.3l0.4-3h0.2l0.2,0.1c0.2,0,0.4,0.1,0.5,0.1c0.7,0,1.1-0.4,1.3-1.3
		l1.1-5.2c0.3-1.5,1.1-2.6,2.4-3.4c0.6-0.4,1.2-0.6,1.9-0.7c-0.6-0.1-1.1-0.3-1.7-0.7c-1.1-0.7-1.9-1.8-2.2-3.2l-0.9-4.3
		c-0.2-0.9-0.6-1.3-1.3-1.3c-0.1,0-0.2,0-0.5,0.1l-0.2,0.1h-0.2l-0.4-3l0.9-0.3c0.7-0.2,1.5-0.3,2.3-0.3c1.3,0,2.3,0.3,3.1,1
		c0.8,0.7,1.3,1.6,1.6,2.7l1.1,5c0.2,1,0.5,1.6,0.9,2c0.4,0.4,1.1,0.6,2,0.6h0.7V2h5.2V13h0.7c0.9,0,1.6-0.2,2-0.6
		c0.4-0.4,0.7-1.1,0.9-2l1.1-5c0.2-1.1,0.8-2,1.6-2.7c0.8-0.7,1.8-1,3.1-1c0.8,0,1.5,0.1,2.3,0.3l0.9,0.3l-0.4,3h-0.2l-0.2-0.1
		C206.6,5,206.4,5,206.3,5c-0.7,0-1.1,0.4-1.3,1.3l-0.9,4.3c-0.3,1.4-1.1,2.5-2.2,3.2c-0.5,0.3-1.1,0.5-1.7,0.7
		c0.6,0.1,1.2,0.3,1.9,0.7c1.3,0.7,2.1,1.9,2.4,3.4l1.1,5.2c0.2,0.9,0.6,1.3,1.3,1.3c0.3,0,0.5-0.1,0.7-0.2h0.2l0.4,3
		c-0.5,0.2-1,0.4-1.5,0.4c-0.5,0.1-1,0.1-1.6,0.1c-1.3,0-2.3-0.3-3.1-1c-0.8-0.7-1.3-1.6-1.6-2.7l-1.3-5.9c-0.2-0.9-0.5-1.5-0.9-1.9
		c-0.4-0.4-1-0.6-1.9-0.6H195V28h-5.2V16.3h-1.3c-0.8,0-1.4,0.2-1.9,0.6c-0.4,0.4-0.7,1-0.9,1.9l-1.3,5.9c-0.2,1.1-0.8,2-1.6,2.7
		c-0.8,0.7-1.8,1-3.1,1C178.9,28.3,178.5,28.3,178.5,28.3z"/>
	<path class="st2" d="M216,2h5.2v14.6c0,0.1,0,0.7-0.1,1.6l-0.1,0.8h0.1c0.1-0.4,0.2-0.7,0.3-0.8c0.3-0.7,0.5-1.3,0.7-1.6l7-14.6h5
		V28h-5.2V13.3c0-0.4,0-1,0.1-1.6l0.1-0.8H229c-0.1,0.4-0.2,0.7-0.3,0.8c-0.2,0.5-0.4,1-0.7,1.6L221,28h-5V2z"/>
</g>
<g>
	<path class="st2" d="M51.9,43.3h-2.5l-0.5,1.8H47l2.8-9h1.7l2.8,9h-1.9L51.9,43.3z M49.8,41.7h1.7l-0.8-3.2L49.8,41.7z"/>
	<path class="st2" d="M61.5,37.6h-3.2v7.5h-1.8v-9h5.1V37.6z"/>
	<path class="st2" d="M68.6,41.2h-2.8v2.4h3.4v1.5h-5.2v-9h5.2v1.5h-3.4v2.1h2.8V41.2z"/>
	<path class="st2" d="M77.7,45.1h-1.8v-3.9h-2.7v3.9h-1.8v-9h1.8v3.7h2.7v-3.7h1.8V45.1z"/>
	<path class="st2" d="M86.1,37.6h-2.2v7.5h-1.8v-7.5h-2.2v-1.5h6.3V37.6z"/>
	<path class="st2" d="M94.4,42.1c0,1-0.3,1.8-0.9,2.3c-0.5,0.5-1.3,0.8-2.3,0.8c-1,0-1.8-0.3-2.3-1c-0.5-0.7-0.8-1.6-0.8-2.9v-1.5
		c0-1.2,0.3-2.2,0.8-2.9c0.6-0.7,1.3-1,2.3-1c1,0,1.7,0.3,2.2,0.8c0.5,0.6,0.8,1.3,0.9,2.4h-1.8c0-0.6-0.1-1.1-0.3-1.3
		c-0.2-0.2-0.5-0.4-1-0.4c-0.5,0-0.8,0.2-1,0.5c-0.2,0.3-0.3,0.9-0.3,1.7v1.7c0,0.9,0.1,1.5,0.3,1.8c0.2,0.3,0.5,0.5,1,0.5
		c0.5,0,0.8-0.1,1-0.4c0.2-0.2,0.3-0.7,0.3-1.3H94.4z"/>
	<path class="st2" d="M102.5,37.6h-2.2v7.5h-1.8v-7.5h-2.2v-1.5h6.3V37.6z"/>
	<path class="st2" d="M104.8,45.1v-9h2.8c0.9,0,1.7,0.2,2.1,0.6s0.7,1,0.7,1.8c0,0.5-0.1,0.9-0.3,1.2c-0.2,0.3-0.5,0.6-0.8,0.7
		c0.4,0.1,0.7,0.3,0.9,0.7c0.2,0.3,0.3,0.8,0.3,1.3c0,0.9-0.2,1.5-0.7,2c-0.5,0.4-1.2,0.7-2.1,0.7H104.8z M106.6,39.8h0.9
		c0.7,0,1.1-0.4,1.1-1.1c0-0.4-0.1-0.7-0.2-0.9c-0.2-0.2-0.4-0.3-0.8-0.3h-1V39.8z M106.6,41.2v2.4h1.2c0.3,0,0.6-0.1,0.7-0.3
		c0.2-0.2,0.3-0.5,0.3-0.9c0-0.8-0.3-1.2-0.9-1.2H106.6z"/>
	<path class="st2" d="M119.6,41.4c0,1.2-0.3,2.2-0.9,2.8c-0.6,0.7-1.4,1-2.4,1c-1,0-1.8-0.3-2.4-1c-0.6-0.7-0.9-1.6-0.9-2.8v-1.5
		c0-1.2,0.3-2.2,0.9-2.9c0.6-0.7,1.4-1,2.4-1c1,0,1.8,0.3,2.4,1c0.6,0.7,0.9,1.6,0.9,2.9V41.4z M117.7,39.9c0-0.8-0.1-1.4-0.3-1.8
		c-0.2-0.4-0.6-0.6-1.1-0.6c-0.5,0-0.8,0.2-1.1,0.6c-0.2,0.4-0.4,1-0.4,1.7v1.6c0,0.8,0.1,1.4,0.4,1.7c0.2,0.4,0.6,0.6,1.1,0.6
		c0.5,0,0.8-0.2,1.1-0.5c0.2-0.4,0.3-0.9,0.4-1.7V39.9z"/>
	<path class="st2" d="M132.7,45.1h-1.8v-3.9h-2.7v3.9h-1.8v-9h1.8v3.7h2.7v-3.7h1.8V45.1z"/>
	<path class="st2" d="M140.1,41.2h-2.8v2.4h3.4v1.5h-5.2v-9h5.2v1.5h-3.4v2.1h2.8V41.2z"/>
	<path class="st2" d="M150.2,47.3h-1.7v-2.2h-4.3v2.2h-1.7l-0.1-3.7h0.6c0.3-0.2,0.5-0.6,0.6-1.2c0.2-0.5,0.3-1.3,0.3-2.1l0.3-4.2
		h5.2v7.5h0.9L150.2,47.3z M144.9,43.6h2.6v-6h-1.6l-0.1,2.5C145.7,41.6,145.4,42.7,144.9,43.6z"/>
	<path class="st2" d="M152.5,45.1v-9h2.8c0.9,0,1.7,0.2,2.1,0.6s0.7,1,0.7,1.8c0,0.5-0.1,0.9-0.3,1.2c-0.2,0.3-0.5,0.6-0.8,0.7
		c0.4,0.1,0.7,0.3,0.9,0.7c0.2,0.3,0.3,0.8,0.3,1.3c0,0.9-0.2,1.5-0.7,2c-0.5,0.4-1.2,0.7-2.1,0.7H152.5z M154.3,39.8h0.9
		c0.7,0,1.1-0.4,1.1-1.1c0-0.4-0.1-0.7-0.2-0.9c-0.2-0.2-0.4-0.3-0.8-0.3h-1V39.8z M154.3,41.2v2.4h1.2c0.3,0,0.6-0.1,0.7-0.3
		c0.2-0.2,0.3-0.5,0.3-0.9c0-0.8-0.3-1.2-0.9-1.2H154.3z"/>
	<path class="st2" d="M165.3,36.1h1.8v9h-1.8v-6l-2.7,6h-1.8v-9h1.8v6L165.3,36.1z"/>
	<path class="st2" d="M176.7,41.4h-0.9v3.7h-1.8v-3.7h-0.9l-1.4,3.7h-2.3l2.3-5l-2.2-4.1h2.3l1.5,3.6h0.7v-3.6h1.8v3.6h0.7l1.4-3.6
		h2.3l-2.1,4.1l2.2,5h-2.3L176.7,41.4z"/>
	<path class="st2" d="M186.9,36.1h1.8v9h-1.8v-6l-2.7,6h-1.8v-9h1.8v6L186.9,36.1z"/>
	<path class="st2" d="M193.8,36.1l1.7,6.5l1.7-6.5h2.4v9h-1.8v-2.4l0.2-3.8l-1.8,6.2h-1.2l-1.8-6.2l0.2,3.8v2.4h-1.8v-9H193.8z"/>
	<path class="st2" d="M208.7,41.4c0,1.2-0.3,2.2-0.9,2.8c-0.6,0.7-1.4,1-2.4,1c-1,0-1.8-0.3-2.4-1c-0.6-0.7-0.9-1.6-0.9-2.8v-1.5
		c0-1.2,0.3-2.2,0.9-2.9c0.6-0.7,1.4-1,2.4-1c1,0,1.8,0.3,2.4,1c0.6,0.7,0.9,1.6,0.9,2.9V41.4z M206.9,39.9c0-0.8-0.1-1.4-0.3-1.8
		c-0.2-0.4-0.6-0.6-1.1-0.6c-0.5,0-0.8,0.2-1.1,0.6c-0.2,0.4-0.4,1-0.4,1.7v1.6c0,0.8,0.1,1.4,0.4,1.7c0.2,0.4,0.6,0.6,1.1,0.6
		c0.5,0,0.8-0.2,1.1-0.5c0.2-0.4,0.3-0.9,0.4-1.7V39.9z"/>
	<path class="st2" d="M217.4,42.1c0,1-0.3,1.8-0.9,2.3c-0.5,0.5-1.3,0.8-2.3,0.8c-1,0-1.8-0.3-2.3-1c-0.5-0.7-0.8-1.6-0.8-2.9v-1.5
		c0-1.2,0.3-2.2,0.8-2.9c0.6-0.7,1.3-1,2.3-1c1,0,1.7,0.3,2.2,0.8c0.5,0.6,0.8,1.3,0.9,2.4h-1.8c0-0.6-0.1-1.1-0.3-1.3
		c-0.2-0.2-0.5-0.4-1-0.4c-0.5,0-0.8,0.2-1,0.5c-0.2,0.3-0.3,0.9-0.3,1.7v1.7c0,0.9,0.1,1.5,0.3,1.8c0.2,0.3,0.5,0.5,1,0.5
		c0.5,0,0.8-0.1,1-0.4c0.2-0.2,0.3-0.7,0.3-1.3H217.4z"/>
	<path class="st2" d="M225.5,37.6h-2.2v7.5h-1.8v-7.5h-2.2v-1.5h6.3V37.6z"/>
	<path class="st2" d="M232.2,36.1h1.8v9h-1.8v-6l-2.7,6h-1.8v-9h1.8v6L232.2,36.1z"/>
</g>
</svg>
