<?xml version="1.0" encoding="utf-8"?>
<!-- Generator: Adobe Illustrator 22.0.1, SVG Export Plug-In . SVG Version: 6.00 Build 0)  -->
<svg version="1.1" id="Layer_1" xmlns="http://www.w3.org/2000/svg" xmlns:xlink="http://www.w3.org/1999/xlink" x="0px" y="0px"
	 viewBox="0 0 82 66" style="enable-background:new 0 0 82 66;" xml:space="preserve">
<style type="text/css">
	.st0{fill:#C32A3E;}
</style>
<path class="st0" d="M3.6,66v-4.4c7.7-3.3,13.4-7.6,16.9-12.8c3.5-5.3,5.3-10.6,5.3-16.1c0-1.1-0.2-2-0.7-2.6
	c-0.5-0.5-0.9-0.8-1.4-0.8c-0.4,0-1,0.2-1.8,0.7c-1.9,1.1-4.3,1.7-7.2,1.7c-3.9,0-7.4-1.5-10.3-4.6C1.5,24.1,0,20.5,0,16.5
	C0,12.1,1.7,8.3,5,5c3.3-3.3,7.4-5,12.1-5c5.7,0,10.6,2.2,14.7,6.6c4.1,4.4,6.1,10.4,6.1,18.1c0,9.4-2.9,17.8-8.7,25.2
	C23.5,57.2,14.9,62.6,3.6,66z M47.7,66v-4.4c7.7-3.3,13.4-7.6,16.9-12.8c3.5-5.3,5.3-10.6,5.3-16.1c0-1.1-0.2-2-0.7-2.6
	c-0.5-0.5-0.9-0.8-1.4-0.8c-0.4,0-1,0.2-1.8,0.7c-1.9,1.1-4.3,1.7-7.2,1.7c-3.9,0-7.4-1.5-10.3-4.6c-2.9-3-4.4-6.6-4.4-10.7
	c0-4.4,1.7-8.2,5-11.5c3.3-3.3,7.4-5,12.1-5c5.7,0,10.6,2.2,14.7,6.6C80,11,82,17,82,24.7c0,9.4-2.9,17.8-8.7,25.2
	C67.6,57.2,59,62.6,47.7,66z"/>
</svg>
